<?xml version="1.0" encoding="UTF-8"?>
<svg id="_レイヤー_1" data-name="レイヤー 1" xmlns="http://www.w3.org/2000/svg" xmlns:xlink="http://www.w3.org/1999/xlink" viewBox="0 0 1207.72 113.71">
  <defs>
    <style>
      .cls-1 {
        filter: url(#outer-glow-1);
      }

      .cls-2 {
        fill: navy;
      }

      .cls-3 {
        fill: #c62828;
      }
    </style>
    <filter id="outer-glow-1" x="-60.45" y="-60.5" width="1329" height="235" filterUnits="userSpaceOnUse">
      <feOffset dx="0" dy="0"/>
      <feGaussianBlur result="blur" stdDeviation="20"/>
      <feFlood flood-color="#333" flood-opacity=".3"/>
      <feComposite in2="blur" operator="in"/>
      <feComposite in="SourceGraphic"/>
    </filter>
  </defs>
  <g class="cls-1">
    <path class="cls-2" d="M.24,77.08c-.24-.48-.24-.83-.24-.95,0-.24.12-.36.24-.36.12-.12,7.02-.83,20.83-2.26-.24-.95-.12-1.9.48-2.62.48-.71.36-2.74-.36-6.19s-1.07-6.67-.95-9.88c.12-3.33.24-5.12.48-5.71.12-.48.36-.95.36-1.19.12-.24.24-.36.6-.6.24-.24,8.09-1.19,23.33-2.98-.12-2.5-.36-4.4-.48-5.95-.24-1.55-.36-2.86-.36-3.93,0-1.19,0-2.02.12-2.5.12-.48.24-.71.24-.83,0,0,.12,0,.24.12,1.19.24,2.14.71,2.74,1.19.59.6,1.07,1.43,1.43,2.5.24.95.48,2.26.71,3.69l.71,4.64c6.31-.71,11.07-1.31,14.16-1.55s5.12-.36,5.95-.24c.83,0,1.55.24,2.26.48s1.19,1.79,1.67,4.52c0,1.43-.36,4.76-1.31,10.12-.95,5.24-1.31,8.81-1.19,10.71,6.31-.6,10.95-.95,14.16-1.07,3.09,0,5.12.12,6.07.48.95.24,1.67.71,2.26,1.31.71.6,1.07,1.07,1.31,1.55.12.48.24.71.24.83-.12.12-.12.24-.24.48-.12.12-.48.24-1.19.48-.6.12-1.55.24-2.74.36-1.31.12-4.64.24-9.88.36-5.12,0-9.64.24-13.33.71-3.81.48-9.4,1.07-17.02,1.79,1.79,1.07,2.98,1.9,3.57,2.38.59.36,2.26,2.02,5.12,4.76,2.86,2.62,6.31,5.59,10.47,8.69,4.17,3.21,7.74,5.36,10.83,6.55,2.98,1.19,5.24,2.02,6.78,2.62,1.55.6,2.74,1.07,3.69,1.43.95.48,1.9,1.07,2.86,2.02s1.43,1.55,1.55,1.67c0,.24,0,.36-.12.36-.12.12-.36.12-.83.24-.48,0-1.31,0-2.5-.12-1.19-.12-2.5-.24-4.05-.6-1.55-.24-4.28-1.19-7.97-2.74-3.81-1.55-6.31-2.86-7.38-3.81-1.19-.95-3.81-2.74-7.97-5.36-4.05-2.62-7.26-4.76-9.4-6.55-2.26-1.79-3.93-3.21-5-4.29-1.19-1.19-1.9-2.14-2.38-3.09-.48-.95-1.07-2.26-1.9-3.81-2.5,6.19-5.59,11.66-9.52,16.31-3.81,4.64-7.38,7.86-10.83,9.76-3.45,1.79-6.07,3.33-7.74,4.29-1.67,1.07-2.98,1.67-3.93,1.79-1.07.12-2.02,0-2.86-.24-.95-.24-1.43-.6-1.67-.83-.24-.24-.24-.48-.24-.6s2.98-1.79,8.69-5.24c5.83-3.45,10.47-7.26,13.93-11.66,3.57-4.29,5.95-8.45,7.26-12.5-11.43,1.9-19.52,3.09-24.16,3.57-4.76.6-7.86.83-9.52.83-1.55,0-2.74-.12-3.45-.48-.71-.24-1.19-.6-1.67-1.07-.36-.6-.71-1.19-.95-1.79ZM6.78,30.06c-2.74-.24-4.05-1.43-3.69-3.57.12-1.31,1.79-2.02,4.88-2.02,3.93-.95,9.4-1.55,16.31-1.9-.48-4.29-.71-7.5-.95-9.52-.24-2.02.48-3.09,2.26-3.21,1.79-.24,2.86.71,3.09,2.86.24,2.26.95,5.24,2.02,9.05,11.31-1.31,22.02-2.86,32.02-4.76.59-5.95,1.79-9.17,3.69-9.76,1.79-.6,2.14,2.5,1.19,9.4l13.45-2.02c3.09.12,4.88,1.79,5.48,4.88.12,1.67-1.07,2.26-3.69,2.02-2.14-.71-7.38-.48-15.95.71-1.07,5.71-4.29,11.07-9.76,15.95-1.31.48-1.79.24-1.43-.71,1.67-5,3.81-9.88,6.55-14.52l-16.66,2.86c-4.88.12-9.52.6-13.93,1.79,1.07,3.69,2.14,5.71,3.33,6.07,1.31.48,2.02,1.07,2.26,2.02.36.95.12,2.26-.6,3.81-3.33-.36-5.95-1.79-7.74-4.4s-2.74-5.24-2.98-7.62c-6.79,1.07-13.21,2.02-19.16,2.62ZM27.02,62.55c.71,4.4,1.07,7.02.95,7.62-.12.6-.12,1.43-.12,2.26,4.88-.24,9.64-1.07,14.28-2.26.83-3.21,1.55-6.07,2.02-8.69.48-2.62.83-4.88.95-6.67.12-1.67.12-3.33.12-4.88-7.02.95-11.67,1.55-13.81,1.9-2.26.36-4.05.71-5.48.95,0,2.02.36,5.36,1.07,9.76ZM50.35,49.58c.24,1.9.24,3.93.12,6.07-.12,2.02-.48,4.17-1.07,6.19-.71,2.02-1.31,4.52-1.79,7.38,7.5-.6,14.05-1.07,19.64-1.31-.83-1.07-1.31-1.79-1.31-2.14-.12-.36-.12-1.07-.12-2.02s.24-2.98.6-5.83c.36-2.98.71-5.12,1.07-6.78.36-1.55.6-2.98.6-4.29-3.57.6-9.52,1.55-17.74,2.74Z"/>
    <path class="cls-2" d="M165.8,9.23c10.36,10.71,27.97,24.16,52.61,40.23.48,2.86-.24,4.4-2.38,4.52-2.14.12-9.4-4.52-22.02-13.81-12.62-9.17-22.85-17.38-30.71-24.52-2.38,3.81-8.21,10.83-17.5,21.07-9.4,10.12-15.24,16.19-17.73,18.33-2.38,2.14-4.29,3.69-5.71,4.76-1.43,1.19-2.62,1.19-3.57.12-1.07-.95-1.55-1.79-1.67-2.38s2.02-2.62,6.19-6.19c4.29-3.57,9.4-8.93,15.59-16.07,6.31-7.02,11.31-13.45,15.35-19.28,3.93-5.83,6.55-9.64,7.62-11.43,1.19-1.9,3.21-2.86,6.19-2.86,1.55.71.83,3.21-2.26,7.5ZM201.99,58.63c.24,1.67-9.64,3.57-29.4,5.95-8.33,8.33-16.55,18.33-24.64,30,2.26.71,5,.83,8.33.48,3.33-.36,8.21-1.19,14.52-2.38,6.31-1.07,11.07-1.43,14.28-.71-2.38-6.55-3.81-10.59-4.28-12.5-.6-1.9.36-2.5,2.74-2.14,5.71,5.59,10.24,11.55,13.57,18.09,2.26.6,4.05,4.64,5.36,12.14.24,1.55-.24,2.5-1.31,2.86-1.07.48-2.38-.12-3.69-1.55-2.98-5.83-6.07-9.64-9.28-11.31-7.62,1.55-18.57,2.98-33.21,4.4-5.59,1.07-10.59,1.67-15,1.67-3.09-2.98-2.74-6.43,1.07-10.36,7.38-11.43,14.52-21.19,21.43-29.28-4.52,1.43-13.45,2.62-26.78,3.57-1.43-.36-2.38-1.19-2.86-2.14-.36-.95-.71-1.67-1.07-2.14-.24-.48-.36-.95-.36-1.07.12-.24,3.81-.71,11.19-1.43s25.59-2.38,54.52-5.12c2.98.36,4.64,1.43,4.88,2.98ZM178.42,40.77c2.26-.12,3.93.36,4.88,1.31.83.95,1.19,1.79.95,2.62-.24.71-1.31,1.31-3.21,1.9-1.79.6-3.93.95-6.55.95-3.09,0-7.5.36-13.09.83-5.71.48-9.4.6-11.31.48-1.9-.12-2.86-1.67-2.86-4.64,12.74-1.67,23.09-2.86,31.19-3.45Z"/>
    <path class="cls-2" d="M244.12,38.99c-4.05.83-6.67.95-7.97.36-1.31-.71-2.26-1.31-2.62-2.02-.48-.71-.48-1.31-.12-1.9s1.55-.95,3.57-.95,4.17,0,6.07-.12c9.52-2.74,16.66-4.52,21.66-5.48s7.97-1.31,9.05-.95c1.07.48,2.02,1.07,2.86,2.02.95.95,1.31,1.55,1.07,2.02-.24.36-.71.71-1.55,1.07s-1.9.36-3.33.24c-1.55-.24-4.17.12-7.98.83-9.76,2.38-16.66,3.93-20.71,4.88ZM243.05,93.03c-.6-6.07.36-12.02,2.74-17.85.6-.6,1.43-.71,2.38-.48.95.36,2.02,1.07,3.09,2.26,6.78-1.9,11.9-3.45,15.35-4.52s5.95-.12,7.5,3.21c1.55,8.09,1.07,16.19-1.19,24.16,0,.6-2.98,1.19-8.93,1.79-5.83.6-10.36,1.67-13.57,3.09-4.05-.24-6.55-4.17-7.38-11.66ZM245.31,51.96c-.83-.6-1.43-1.19-1.79-1.79s.95-1.43,4.05-2.62c2.98-1.07,9.28-2.38,18.93-4.17,1.19-.12,2.26.36,3.21,1.31,1.07,1.07,1.55,1.9,1.79,2.62.12.6.12,1.07-.12,1.31-.12.24-.83.24-1.9-.12-1.19-.36-3.21,0-6.31.95-2.98,1.07-7.86,2.14-14.52,3.33-1.31,0-2.5-.24-3.33-.83ZM245.66,65.29c-1.31-1.07-1.9-1.9-1.67-2.5,5.95-2.86,14.05-5.24,24.52-6.9,1.07,0,2.02.36,3.09,1.19,1.07.71,1.55,1.43,1.55,2.02s-.12.95-.36,1.31c-.36.36-1.19.6-2.5.6s-3.45.48-6.31,1.43c-2.98.95-7.86,2.26-14.76,3.81-.95.48-2.14.24-3.57-.95ZM250.31,99.93c7.5-1.55,13.45-2.86,18.09-3.69,1.79-5.95,1.79-12.02.12-17.97-4.4,1.31-9.76,3.09-15.95,5.12-.71.24-1.43-.24-2.14-1.31-2.38,6.31-2.38,12.14-.12,17.85ZM255.9,18.87c0-3.33-.48-5.71-1.19-7.02-.83-1.43-1.19-2.38-1.07-2.74.24-.36.71-.48,1.67-.24.83.24,2.14,1.55,3.93,3.81,1.67,2.14,2.74,4.64,2.98,7.38s.36,4.4.24,5.12c-.24.71-.36.95-.6.71-3.93-1.43-5.95-3.81-5.95-7.02ZM279.11,47.68c.36-.48.95-.95,1.79-1.43.71-.36,2.02-.71,3.93-.95,1.79-.12,5.12-.71,10-1.79,4.76-.95,7.86-1.67,9.17-1.9.12-7.38,0-11.78-.36-13.45s-.48-3.21-.24-4.64c-10.47,4.4-15.95,6.55-16.66,6.67-.71.12-1.19,0-1.31-.24-.12-.36-.12-.71,0-1.19.12-.48.48-1.07.95-1.43.48-.48,1.07-1.07,1.67-1.79.71-.71,5.83-3.21,15.47-7.38,9.64-4.29,14.88-6.55,15.71-6.78.83-.36,1.55-.48,2.26-.6.6-.12.95-.12,1.19,0,.24.12.36.71.59,1.9.24.6.12,1.07-.12,1.43s-.48.71-.83,1.07c-.48.48-1.07.83-1.79,1.31-.83.36-2.5,1.07-5.12,2.26-2.5,1.07-4.76,2.14-6.79,3.21.24.71.48,3.45.71,7.98.24,4.52.36,8.21.24,10.83,3.81-.6,8.45-1.19,13.93-1.9s8.93-.95,10.12-.83c1.19.24,2.02.36,2.62.48.48.24.83,1.07,1.07,2.5.12,1.55-2.98,2.62-9.4,3.33-6.43.71-10.71,1.19-12.85,1.43-2.02.24-4.05.36-5.83.6,0,2.38.36,8.69.95,19.04,5-.83,9.76-1.43,14.05-2.02,1.9.36,3.57,1.67,4.76,4.05.6,5.59.24,11.43-1.07,17.5-1.19,3.45-2.5,5.95-3.69,7.38-1.31,1.43-2.02,2.5-2.14,3.09-.24.71-.6,1.55-1.07,2.38-.59.95-2.14,1.55-4.88,1.67-2.62,0-5.59.36-8.93.83-3.33.6-5.71.83-7.14.95-1.55.12-2.86.48-3.93,1.19-1.07.6-2.02.48-2.62-.6-.71-1.19-1.19-1.31-1.67-.48-.48.71-1.55.36-3.21-1.07-1.67-1.43-2.86-5.24-3.57-11.43-.71-6.31-1.19-11.31-1.55-15.12s-.36-6.31,0-7.5c.36-1.31.83-2.02,1.31-2.26.6-.24,1.19,0,2.14.6.83.48,1.43,1.07,1.67,1.79.24.6.71,1.55,1.55,2.86,4.76-.24,9.52-1.19,14.28-2.86-.48-1.31-.71-7.5-.83-18.57-2.26.71-6.43,1.55-12.62,2.5-6.19,1.07-9.64,1.67-10.12,1.67-.6,0-1.07-.36-1.67-.83-.48-.48-.71-.95-.71-1.43,0-.71.24-1.43.59-2.02ZM309.94,71.96c-5.59.95-10.95,1.9-16.31,2.98-1.67.6-3.09.24-4.28-1.19.83,8.57,1.43,14.52,2.02,17.74.48,3.21,1.19,5.24,2.02,6.07,6.19-2.62,14.05-3.93,23.81-4.17,1.9-3.09,3.45-6.07,4.4-8.93.95-2.98,1.67-7.62,2.02-14.05-3.45,0-7.98.48-13.69,1.55Z"/>
    <path class="cls-2" d="M434.8,87.55c-8.81,4.4-16.55,7.62-22.97,9.4-6.43,1.79-11.66,2.14-15.71,1.07-4.17-1.07-6.78-2.5-8.09-4.4-1.19-1.79-1.55-3.93-1.19-6.31,3.81-11.78,10.12-21.78,19.04-30-.83-2.14-2.74-3.09-5.48-2.86-2.74.24-6.07,1.79-9.88,4.64-3.93,2.74-7.38,5.71-10.59,8.57-2.62.36-3.81-.95-3.45-3.93,3.93-11.19,8.81-22.38,14.4-33.45-3.57.6-6.31,1.31-8.33,2.26-2.02,1.07-3.57,1.43-4.88,1.07-1.19-.36-2.62-1.55-4.4-3.45-.24-1.43,1.19-2.5,4.28-3.21,3.09-.71,9.05-1.9,17.85-3.45l3.09-7.02c.48-1.79,1.07-2.38,1.9-1.79.71.48,1.31.95,1.79,1.55.48.48.71,2.26.71,5.12,3.33-.12,6.9-.48,10.71-1.31s6.55-.6,8.09.6c1.67,1.19,2.38,2.26,2.14,3.09-.36.83-2.5,1.31-6.78,1.43-4.17.24-9.88,1.19-17.02,2.86-5.24,7.38-9.52,15.83-12.85,25.35,3.09-1.43,5.95-2.62,8.57-3.57,2.62-1.07,4.76-1.43,6.55-1.31,1.79.12,4.05,1.79,6.9,5,4.76-3.33,8.57-6.07,11.31-8.21,2.74-2.02,5.24-2.5,7.26-1.31,2.02,1.19,2.74,2.62,2.02,4.29-.83.36-2.74,1.19-5.59,2.38-2.74,1.31-6.9,4.4-12.26,9.17-.83,6.78-1.31,13.81-1.31,20.95-1.31,1.07-2.62,1.07-4.05,0-.95-3.57-1.43-7.98-1.43-13.33-6.19,6.43-9.88,11.55-11.07,15.59-1.31,3.93-1.43,6.78-.36,8.45.95,1.55,4.76,1.9,11.07,1.07,6.43-.95,15.24-4.4,26.66-10.47,2.62.95,3.81,2.86,3.33,5.48Z"/>
    <path class="cls-3" d="M476.81,58.51c0-.24,3.57-2.5,10.71-6.67,7.02-4.29,10.71-6.31,10.83-6.19.12.12.36.24.48.48.12.24.36.48.48.95.12.36.36.71.48,1.07.24.48.24.83.24,1.43-.12.48-.24.83-.36,1.19-.12.24-.36.6-.71.83s-3.69,2.14-10,5.71c-6.19,3.57-9.4,5.24-9.52,5.24s-.36-.24-.71-.36c-.24-.24-.48-.6-.83-.95-.24-.36-.48-.71-.71-1.19-.24-.71-.36-1.19-.36-1.55ZM479.55,24.46c.48-.36.95-.48,1.67-.48s3.45,1.07,8.45,3.33c4.88,2.26,7.5,3.57,7.86,3.93.24.48.36.95.36,1.31,0,.48-.12.95-.48,1.43-.24.36-.83.83-1.67,1.31-.95.6-3.69-.36-8.33-2.5-4.76-2.26-7.26-3.57-7.86-4.05-.48-.48-.95-.95-1.19-1.31-.36-.36-.6-.6-.6-.83s.36-.83,1.19-1.67c0-.12.24-.24.6-.48ZM517.4,9.11c-3.69,2.86-6.55,6.43-8.69,10.83,3.81-.83,9.28-1.9,16.55-3.09,7.14-1.31,11.43-1.67,12.74-1.07,1.19.6,2.02,1.79,2.26,3.45s0,5.71-.83,12.02c-.83,6.43-1.43,11.19-1.9,14.28-.48,3.09-1.31,5-2.5,5.71-1.31.71-2.02,1.07-2.38,1.07s-3.69.71-10.36,1.9c1.79,1.43,2.38,4.76,1.67,9.76,15.83-1.19,24.88-1.9,27.02-2.14,2.14-.36,3.81-.6,5.24-.71,1.31-.12,2.74,0,4.05.36,1.31.36,2.26.95,2.62,1.79.36.83-1.67,1.67-5.95,2.74-4.4,1.07-15.24,2.38-32.5,3.93,2.5,3.21,6.07,6.43,10.71,9.4,4.52,2.98,11.07,6.67,19.64,10.71,8.57,4.17,13.33,6.67,14.28,7.5.95.95,1.19,1.67.6,2.14-.71.6-1.79.83-3.45.6-1.67-.12-3.09-.36-4.4-.6-1.19-.12-3.45-.95-6.67-2.38-3.21-1.43-6.67-3.21-10.47-5.36-3.81-2.14-7.5-4.05-11.07-5.71-3.57-1.67-6.67-4.05-9.17-7.02.24,3.45.36,8.81.48,16.07.12,7.14-.24,11.43-.95,12.62-.83,1.19-1.43,1.55-2.02,1.19-.48-.36-1.07-.83-1.67-1.43-.71-.6-.83-1.67-.6-3.21.24-1.67-.12-9.88-1.07-24.88-8.81,8.69-15.83,15.12-21.19,19.28-5.48,4.05-8.81,6.19-10.12,6.31-1.31.12-2.5.12-3.57.24-1.07,0-1.9-.12-2.38-.71-.36-.6.12-1.43,1.55-2.74,3.69-1.67,8.81-5.24,15.47-10.95,6.67-5.71,13.93-12.26,21.78-19.76-6.43.95-12.86,2.14-19.52,3.33-6.67,1.19-11.07,1.9-13.09,2.02-2.14,0-3.45-.12-4.05-.48-.71-.48-1.31-.95-1.9-1.67-.48-.83-.36-1.55.6-2.38s2.5-1.31,4.76-1.55c2.14-.24,6.67-1.07,13.57-2.38,6.9-1.31,11.43-2.14,13.57-2.62,2.14-.36,3.21-1.31,3.09-2.74.48-1.07.71-2.38.71-3.69-.12-1.43-.12-2.86-.12-4.52-4.76.83-8.21,1.55-10.12,2.02-1.9.48-3.21-1.43-3.93-5.71-.6-4.17-.95-13.33-.95-27.26-.6-3.57-.48-6.19.24-7.86.83-1.67,2.62-3.81,5.48-6.43,2.98-2.62,5.24-4.76,7.02-6.31,2.26.83,2.98,2.86,1.9,6.07ZM509.42,24.35l-.48,10,25.23-3.21,1.31-10.47-8.57.6-17.5,3.09ZM509.78,49.94l22.14-2.98,1.43-10.71-24.28,4.17.71,9.52ZM564.18,17.8c.12.48-.12,1.07-.59,1.79-.48.6-1.67,1.79-3.57,3.57-2.02,1.79-3.69,3.21-5.24,4.17s-2.74,1.67-3.93,2.14c-1.07.36-2.02.6-2.86.71-.95.12-1.79-.12-2.62-.36-.83-.36-1.43-.71-1.9-.95-.36-.24-.6-.36-.6-.48s1.43-1.07,4.4-2.86c2.98-1.79,5.83-3.81,8.45-5.95,2.74-2.14,4.4-3.33,4.88-3.57.48-.24.95-.36,1.31-.36.36.12.6.24.71.36,1.07.71,1.55,1.43,1.55,1.79ZM547.99,37.56c.48,0,1.07.12,1.79.24.6.24,3.57,2.5,8.81,6.78,5.36,4.4,8.21,6.78,8.57,7.38.36.48.6.95.71,1.31s.24.71.12,1.07c-.12.36-.24.71-.59,1.07-.36.48-.83.83-1.55,1.07-.6.24-3.21-1.43-7.97-5.12s-7.97-6.43-9.88-8.21c-1.9-1.79-2.86-2.74-2.86-3.09s.12-.71.36-1.19c.24-.48.36-.71.36-.71.83-.36,1.55-.6,2.14-.6Z"/>
    <path class="cls-3" d="M622.97,16.85c.95-1.67,2.14-2.26,3.81-1.67s2.38,2.14,2.38,4.76c-3.09,20.35-4.4,40.83-3.81,61.78.6,3.69,1.79,6.19,3.57,7.5,1.79,1.19,4.05,2.14,6.78,2.74,2.74.6,6.55-.95,11.55-4.64,5-3.69,10.36-6.78,16.07-9.4,1.31,1.07,1.9,2.26,1.79,3.81-.12,1.43-.83,2.74-2.26,4.05-5.36,1.9-10.36,4.64-14.88,8.33-4.64,3.57-9.64,4.64-15.24,3.21-4.64-1.31-7.98-3.45-10-6.19-2.02-2.86-3.33-7.38-4.05-13.57-.24-20.59,1.19-40.83,4.29-60.71Z"/>
    <path class="cls-3" d="M735.68,61.01c-.48-1.07-.24-1.9.83-2.5,1.07-.71,2.26-.83,3.57-.48,13.81-10.71,24.28-23.93,31.54-39.76.71-.71,1.79-1.07,3.09-1.07s1.9,1.43,1.79,4.4c-2.86,6.19-6.55,12.62-11.31,19.28-6.07,7.86-12.74,14.76-20,21.07,9.52,8.21,20.59,16.78,33.33,25.59,1.79-.95,3.09-.71,3.93.71.83,1.55,1.31,2.98,1.43,4.29.12,1.43-.24,2.38-1.07,2.74-.83.48-2.26.12-4.4-.95-2.26-1.19-10.24-7.26-24.28-18.09l-18.45-15.24Z"/>
    <path class="cls-2" d="M923.86,25.42c.6.95-.24,3.57-2.38,7.74-2.26,4.17-4.4,6.9-6.43,8.33-2.14,1.31-3.57,1.79-4.29,1.31-.71-.36-.83-1.07-.59-1.79.36-.71,1.07-1.79,1.9-3.09.95-1.31,2.38-3.81,4.52-7.5-2.86-.48-6.19-.36-9.88.36-3.81.71-10.36,1.67-19.88,2.86-9.52,1.31-17.38,2.26-23.33,2.98-6.07.71-12.5,2.02-19.52,3.81-1.31,4.88-2.14,9.05-2.26,12.38-.24,3.45-.36,5.71-.48,6.78-.12,1.07-.71,1.31-2.02.71-1.31-.48-2.14-1.79-2.74-3.81-.48-2.02-.59-4.29-.24-6.67.24-2.38.48-5.12.6-7.98.12-2.98.6-5.83,1.31-8.45.6-2.74,1.31-4.05,2.02-4.17.6-.12,1.67,1.19,3.09,3.81,1.9-.12,7.5-.71,16.9-1.79-1.19-1.79-2.5-4.52-4.17-8.21-1.67-3.57-2.74-6.55-3.33-8.69-.6-2.26-.83-3.57-.83-3.93s.6-.71,2.02-1.07c1.31-.24,2.38.95,3.21,3.57,2.62,7.26,4.52,11.66,5.48,13.33.95,1.55,1.67,2.98,2.14,4.29,6.43-.71,15.47-1.79,27.5-3.09-1.79-1.31-2.86-2.14-3.21-2.62s-.6-.83-.6-1.19.36-.95.83-1.55c.59-.71,1.79-1.9,3.57-3.33,1.9-1.55,3.93-3.93,6.07-7.38,2.14-3.33,4.28-6.43,6.19-9.28,1.55-1.67,2.98-1.79,4.4-.48,1.31,1.43,1.79,2.38,1.43,2.98-3.21,5.95-6.31,10.47-9.28,13.57-3.09,3.09-4.88,4.88-5.59,5.48-.6.6-1.79,1.79-3.33,3.57,11.31-2.5,20.71-3.81,28.09-3.81,1.55.36,2.62.95,3.09,2.02ZM892.56,42.68c1.19.6,1.67,2.02,1.43,4.4-.36,2.38-1.79,5.36-4.4,8.93-2.74,3.69-5.83,6.67-9.28,9.17,7.02,5.24,11.78,9.4,14.28,12.26.24-1.9,8.81-3.57,25.71-5.12,1.55.48,2.5,1.07,2.86,1.9.36.71.24,1.31-.24,1.9-.48.48-1.31.83-2.26.95-1.07.24-9.88,1.67-26.54,4.52-.12,2.74-1.07,6.55-2.86,11.31-1.67,4.76-3.33,8.45-5,10.95-1.55,2.62-3.21,4.76-4.88,6.67-1.67,1.79-3.09,2.86-4.4,3.09-1.31.24-2.98,0-4.76-.71-1.79-.71-4.17-2.26-7.02-4.64-2.86-2.26-4.4-3.69-4.52-4.29-.12-.48,0-.83.48-.83.6-.12,1.43.12,2.62.36,1.19.36,2.98,1.19,5.24,2.5,2.38,1.43,4.17,1.67,5.59.71,1.31-.83,2.62-2.02,3.81-3.45,1.31-1.31,2.98-3.93,5.12-7.62,2.14-3.69,3.33-7.98,3.69-12.74-5.24,1.31-13.69,2.86-25.47,4.4-11.67,1.55-18.21,1.79-19.4.48-1.19-1.19-1.67-2.14-1.55-2.98.24-.71,4.17-1.55,11.78-2.5,7.62-.83,14.4-1.67,20.35-2.5,6.07-.71,10.71-1.43,14.05-2.26-5.36-3.33-8.69-5.36-10.36-6.19-1.55-.83-2.86-2.02-3.69-3.57-.95-1.55-1.07-2.74-.24-3.81.71-.95,2.74-2.86,5.95-5.71s5.83-6.07,7.74-9.64c-10.83,1.43-17.74,2.62-20.83,3.57-2.98.95-5.12,1.43-6.55,1.19-1.43-.12-2.5-.36-3.09-.83-.6-.36-.71-1.07-.36-2.02.24-1.07,1.55-1.67,3.57-2.14,2.14-.36,10.71-2.5,25.83-6.43,3.93,0,6.43.24,7.62.71ZM871.73,8.75c1.19.24,1.9.71,2.26,1.43,2.02,4.29,4.05,8.93,6.19,13.93.12,1.07-.24,1.43-.95,1.19-2.98-.83-5.36-2.86-6.9-6.19-1.67-3.45-2.5-6.43-2.62-9.28.12-.95.83-1.31,2.02-1.07Z"/>
    <path class="cls-2" d="M963.73,89.22c-1.31-3.33-1.9-8.33-1.67-14.88-.71-17.85,1.79-35.59,7.62-52.97.95-1.31,2.26-.83,3.69,1.19.83,1.31.95,2.98.48,5-1.31,4.4-2.5,9.88-3.69,16.43-3.09,14.4-3.57,28.92-1.43,43.8,1.55,2.5,1.9,4.4.95,5.59-2.62.48-4.64-.95-5.95-4.17ZM1020.27,65.65c6.43,2.26,11.66,5.36,15.71,9.4,1.19,1.19,1.79,2.26,1.79,3.21s-.36,1.55-1.07,1.9c-.71.36-1.9.12-3.33-.6-1.55-.83-3.21-2.02-4.88-3.57-1.67-1.43-4.64-2.74-8.81-3.81-.95,6.43-2.62,11.43-5.12,15.24-2.38,3.81-5.24,6.55-8.45,8.33-9.05.48-14.4-2.02-16.19-7.5-1.67-6.78,0-12.5,5.12-17.14,5-5.12,11.43-7.26,19.28-6.43.95-5.36,1.31-10.95.83-16.78-8.57,1.43-16.43,1.67-23.45.83-1.19-1.67-1.79-2.98-1.79-4.05,2.86-1.43,6.07-1.79,9.76-1.19,4.76-.95,10-1.43,15.47-1.67-.48-5.12-1.07-9.17-1.9-12.26.36-.95.83-1.43,1.55-1.43.71.12,1.55.48,2.38,1.19.95.71,1.67,2.02,2.02,3.93.24,2.02.71,4.52,1.19,7.62,7.86-1.67,12.02-.71,12.74,2.62-.71,1.43-4.64,2.26-11.67,2.5l-1.19,19.64ZM1030.63,21.25c2.02.36,3.33.83,3.57,1.31.36.6.6,1.19.6,2.02,0,.71-.48,1.19-1.31,1.55s-2.5.36-4.88-.12c-2.5-.48-6.19-.71-10.95-.83-4.88-.12-11.19.6-18.93,1.9-2.74-.48-4.4-1.31-4.88-2.62-.6-1.19-.6-2.02-.36-2.5.36-.48.6-.83.95-.83,11.78-1.19,23.81-1.19,36.19.12ZM1013.84,70.17c-2.98.48-5.71,1.07-8.33,1.55-6.67,2.62-10.47,7.62-11.31,15,.83,2.02,2.14,3.21,3.69,3.81,1.67.6,3.45.71,5.36.36,7.02-5,10.59-11.9,10.59-20.71ZM1032.18,10.06c-.24-.95-.12-1.79.36-2.26.48-.36,1.43-.48,2.62-.24,1.31.24,2.38,1.67,3.33,4.17.83,2.5,2.62,4.88,5.12,7.26,2.5,1.79,2.74,3.57.83,5.48-1.9-.48-3.45-1.19-4.52-2.14-.95-1.07-3.21-4.05-6.67-8.93-.36-1.19-.71-2.38-1.07-3.33ZM1046.82.66c1.07.71,2.02,2.86,2.86,6.19.95,3.33,2.14,6.07,3.81,8.09s2.02,3.33,1.19,3.93c-.83.6-1.9.48-3.21-.36-5.83-4.52-8.57-10.59-8.33-18.09,1.43-.6,2.62-.6,3.69.24Z"/>
    <path class="cls-2" d="M1095.85,55.53c5.48-9.64,12.02-15.59,19.64-18.09,7.62-2.5,12.74-2.98,15.47-1.79,2.62,1.31,4.76,2.86,6.31,4.76,1.43,1.9,2.5,3.93,2.98,6.07.48,2.02-.24,8.57-1.9,19.52-1.67,10.95-7.86,23.57-18.57,37.85-1.07,1.07-2.02,1.79-2.98,2.26-.95.36-2.02.12-3.33-.71-1.19-.83-1.31-2.02-.24-3.81,4.29-4.05,7.74-8.81,10.47-14.52,7.02-13.21,10.59-26.9,10.71-40.95-2.38-3.93-5.12-6.07-8.21-6.55-11.78,2.38-20.35,8.45-25.83,18.33-2.26,0-3.81-.71-4.52-2.38ZM1110.97,16.13c-.36-.83-.48-1.79-.24-2.62.24-.83,1.31-1.07,3.21-.83,1.9.12,4.28,1.19,7.14,2.98,2.86,1.79,4.52,3.45,5.12,5.12.71,1.67.36,2.74-.83,3.21-1.19.36-2.62-.36-4.17-2.14-4.76-2.98-8.21-4.88-10.24-5.71Z"/>
    <path class="cls-2" d="M1195.57,94.62c-.48-1.19-.95-2.74-1.43-4.4-.71-3.93,0-7.26,2.26-10,.83,0,1.79.48,2.98,1.55s1.67,2.38,1.55,4.05c-.24,1.67-.36,3.45-.48,5.36-.12,1.9-.48,3.45-.83,4.76-2.14.36-3.45,0-4.05-1.31ZM1196.05,66.41c-1.55-2.62-1.79-6.67-.95-12.5.95-5.71,1.9-11.66,3.09-17.74,1.07-6.07,2.86-12.14,5.12-17.85,2.26-.71,3.69,0,4.17,2.02.48,1.9.24,4.17-.6,6.67-.95,2.5-2.38,7.38-4.17,14.64-1.79,7.26-2.62,16.66-2.38,28.21-1.43.24-2.86-.95-4.28-3.45Z"/>
  </g>
</svg>