<?xml version="1.0" encoding="UTF-8"?>
<svg id="_レイヤー_1" data-name="レイヤー 1" xmlns="http://www.w3.org/2000/svg" viewBox="0 0 1473.01 318.08">
  <defs>
    <style>
      .cls-1 {
        fill: navy;
      }

      .cls-2 {
        fill: #c62828;
      }

      .cls-3 {
        fill: none;
        stroke: navy;
        stroke-miterlimit: 10;
      }

      .cls-4 {
        fill: #f8f9fa;
      }

      .cls-5 {
        fill: #e7121b;
      }
    </style>
  </defs>
  <g>
    <path class="cls-1" d="M619.89,284.88v-3.6l5.5-.92v-40.84l-5.37-.88v-3.6h19.16v3.6l-6.29.88v40.84l16.7-.62,4-10.41,4.36.85-2.23,14.71h-35.83Z"/>
    <path class="cls-1" d="M661.97,275.05c0-1.57.3-2.97.88-4.21.59-1.23,1.4-2.32,2.42-3.26,1.02-.94,2.23-1.74,3.62-2.39,1.39-.66,2.88-1.19,4.49-1.61,1.6-.41,3.27-.72,5.01-.92,1.74-.2,3.46-.32,5.16-.36v-1.74c0-1.53-.11-2.82-.33-3.88-.22-1.06-.6-1.92-1.13-2.59-.54-.67-1.25-1.15-2.15-1.44-.9-.29-2.03-.44-3.41-.44-1.18,0-2.36.11-3.54.33-1.18.22-2.31.49-3.39.8-1.08.32-2.08.66-2.98,1.02-.91.36-1.67.69-2.28,1h-.03l-1.47-3.14c.41-.39,1.15-.89,2.19-1.51,1.05-.61,2.29-1.2,3.72-1.77s2.97-1.06,4.62-1.47c1.65-.41,3.29-.62,4.93-.62,2.29,0,4.23.23,5.81.7,1.58.47,2.87,1.22,3.85,2.26.98,1.04,1.69,2.38,2.11,4.03.43,1.65.64,3.66.64,6.04v21.35h4.06v3.18c-.41.11-.91.23-1.49.38s-1.18.27-1.82.39c-.63.12-1.28.22-1.93.31-.66.09-1.28.13-1.87.13s-1.14-.03-1.59-.08c-.45-.05-.81-.2-1.1-.43s-.5-.57-.64-1.03c-.14-.46-.21-1.08-.21-1.87v-1.21c-.28.26-.75.65-1.39,1.16-.64.51-1.43,1.03-2.37,1.54s-2.01.96-3.21,1.34c-1.2.38-2.49.57-3.87.57-1.51,0-2.94-.2-4.31-.61-1.36-.4-2.57-1.03-3.6-1.88-1.04-.85-1.87-1.95-2.49-3.29-.62-1.34-.93-2.94-.93-4.8ZM676.12,280.62c.46,0,1-.06,1.64-.18.63-.12,1.29-.29,1.97-.51.68-.22,1.35-.49,2.01-.82.67-.33,1.27-.69,1.82-1.08v-12.05c-2.62,0-4.81.23-6.57.69-1.76.46-3.16,1.06-4.21,1.82-1.05.75-1.79,1.61-2.23,2.57-.44.96-.66,1.96-.66,3.01,0,1.2.16,2.22.48,3.05.32.83.75,1.51,1.31,2.03.56.52,1.22.9,1.98,1.13.76.23,1.58.34,2.46.34Z"/>
    <path class="cls-1" d="M700.39,284.88v-3.6l4.39-.56v-27.25l-4.59-1.44v-3.93l9.33-1.34h.16l1.61,1.31v2.55l-.07,1.41c.72-.66,1.61-1.29,2.67-1.92s2.19-1.18,3.39-1.67c1.2-.49,2.43-.89,3.7-1.2,1.27-.31,2.48-.46,3.63-.46,2.16,0,3.94.29,5.34.88,1.4.59,2.49,1.52,3.29,2.78s1.35,2.88,1.65,4.83c.3,1.95.46,4.31.46,7.06v18.37l4.85.56v3.6h-16.47v-3.6l4.32-.56v-18.41c0-1.75-.08-3.27-.23-4.58-.15-1.31-.46-2.4-.93-3.28-.47-.87-1.14-1.53-2.01-1.96-.87-.44-2.02-.66-3.44-.66-1.66,0-3.32.3-4.99.9-1.67.6-3.13,1.36-4.37,2.28v25.71l4.62.56v3.6h-16.31Z"/>
    <path class="cls-1" d="M745.42,292.21c0-1.18.18-2.24.54-3.19.36-.95.83-1.8,1.41-2.55.58-.75,1.24-1.4,1.98-1.95s1.49-.99,2.23-1.34c-1.09-.63-1.94-1.42-2.54-2.37-.6-.95-.9-2.09-.9-3.42,0-.89.13-1.7.38-2.42.25-.72.6-1.38,1.05-1.98.45-.6.98-1.15,1.59-1.65.61-.5,1.29-.98,2.03-1.44-2.05-.98-3.66-2.36-4.81-4.14-1.16-1.78-1.74-3.9-1.74-6.37,0-2.03.44-3.83,1.31-5.4.87-1.57,2.03-2.9,3.47-3.98,1.44-1.08,3.09-1.91,4.95-2.49,1.86-.58,3.76-.87,5.7-.87h.03c2.34,0,4.46.27,6.39.82s3.54,1.4,4.85,2.55c.28-.28.68-.62,1.18-1,.5-.38,1.08-.75,1.74-1.11s1.39-.67,2.19-.92c.81-.25,1.67-.38,2.59-.38h1.31v6.39h-6.75c.74,1.48,1.11,3.19,1.11,5.11s-.41,3.84-1.23,5.49c-.82,1.65-1.93,3.06-3.32,4.24s-3.03,2.09-4.91,2.73c-1.88.64-3.88.97-5.99.97h-.03c-1.59,0-3.12-.15-4.59-.46-.68.48-1.23,1.04-1.67,1.69-.44.64-.66,1.42-.66,2.34,0,.85.17,1.53.51,2.05.34.51.82.91,1.46,1.18.63.27,1.42.45,2.36.54.94.09,2,.13,3.18.13h7.14c4.37,0,7.56.83,9.58,2.51,2.02,1.67,3.03,4.19,3.03,7.55,0,1.88-.47,3.66-1.41,5.34-.94,1.68-2.25,3.16-3.95,4.44-1.69,1.28-3.71,2.29-6.06,3.03-2.35.74-4.93,1.11-7.75,1.11h-.03c-2.82,0-5.28-.26-7.39-.79-2.11-.52-3.87-1.26-5.29-2.19-1.42-.94-2.48-2.07-3.19-3.39-.71-1.32-1.06-2.78-1.06-4.37ZM760.55,285.01c-1.11,0-2.18-.05-3.19-.15-1.01-.1-1.96-.27-2.83-.51-.52.66-.99,1.47-1.39,2.44-.4.97-.61,2.17-.61,3.59,0,2.69.82,4.76,2.46,6.22,1.64,1.46,4.27,2.19,7.89,2.19h.07c1.55,0,3.03-.16,4.45-.49,1.42-.33,2.67-.81,3.75-1.46,1.08-.64,1.94-1.45,2.57-2.42s.95-2.11.95-3.42c0-1.05-.1-1.95-.31-2.7-.21-.75-.61-1.38-1.21-1.87-.6-.49-1.44-.85-2.51-1.08-1.07-.23-2.47-.34-4.19-.34h-5.89ZM761.99,267.65h.03c1.31,0,2.41-.2,3.31-.59.9-.39,1.62-.97,2.16-1.72.55-.75.94-1.67,1.18-2.75.24-1.08.36-2.3.36-3.65,0-2.9-.6-5.04-1.79-6.4-1.19-1.36-3.07-2.05-5.65-2.05h-.03c-1.11,0-2.12.13-3.01.39-.9.26-1.67.7-2.31,1.31-.64.61-1.14,1.43-1.49,2.46s-.52,2.31-.52,3.86c0,1.2.13,2.35.38,3.46.25,1.1.67,2.07,1.26,2.91.59.84,1.38,1.51,2.38,2.01.99.5,2.24.75,3.75.75Z"/>
    <path class="cls-1" d="M817.27,285.66c-1.38,0-2.42-.25-3.14-.75s-1.08-1.44-1.08-2.82v-1.34c-.61.52-1.34,1.08-2.18,1.65s-1.76,1.11-2.77,1.59-2.07.87-3.19,1.18c-1.13.31-2.28.46-3.46.46-2.03,0-3.78-.26-5.24-.79-1.46-.52-2.66-1.36-3.6-2.52s-1.63-2.65-2.08-4.49-.67-4.07-.67-6.71v-18.77l-3.67-1.41v-3.14l9.47-1.05h.03l1.47.92v23.06c0,1.81.09,3.35.28,4.6s.53,2.28,1.03,3.06c.5.79,1.18,1.35,2.05,1.7.86.35,1.97.52,3.32.52.96,0,1.86-.1,2.7-.31.84-.21,1.62-.46,2.34-.75.72-.29,1.36-.62,1.93-.97.57-.35,1.05-.67,1.44-.95v-25.28l-4.62-1.41v-3.18l10.02-1.02h.07l1.83.92v33.47h3.96v3.27c-.76.24-1.67.51-2.72.8-1.05.29-2.23.44-3.54.44Z"/>
    <path class="cls-1" d="M828.97,275.05c0-1.57.3-2.97.88-4.21.59-1.23,1.4-2.32,2.42-3.26,1.02-.94,2.23-1.74,3.62-2.39,1.39-.66,2.88-1.19,4.49-1.61,1.6-.41,3.27-.72,5.01-.92,1.74-.2,3.46-.32,5.16-.36v-1.74c0-1.53-.11-2.82-.33-3.88-.22-1.06-.6-1.92-1.13-2.59-.54-.67-1.25-1.15-2.15-1.44-.9-.29-2.03-.44-3.41-.44-1.18,0-2.36.11-3.54.33-1.18.22-2.31.49-3.39.8-1.08.32-2.08.66-2.98,1.02-.91.36-1.67.69-2.28,1h-.03l-1.47-3.14c.41-.39,1.15-.89,2.19-1.51,1.05-.61,2.29-1.2,3.72-1.77s2.97-1.06,4.62-1.47c1.65-.41,3.29-.62,4.93-.62,2.29,0,4.23.23,5.81.7,1.58.47,2.87,1.22,3.85,2.26.98,1.04,1.69,2.38,2.11,4.03.43,1.65.64,3.66.64,6.04v21.35h4.06v3.18c-.41.11-.91.23-1.49.38s-1.18.27-1.82.39c-.63.12-1.28.22-1.93.31-.66.09-1.28.13-1.87.13s-1.14-.03-1.59-.08c-.45-.05-.81-.2-1.1-.43s-.5-.57-.64-1.03c-.14-.46-.21-1.08-.21-1.87v-1.21c-.28.26-.75.65-1.39,1.16-.64.51-1.43,1.03-2.37,1.54s-2.01.96-3.21,1.34c-1.2.38-2.49.57-3.87.57-1.51,0-2.94-.2-4.31-.61-1.36-.4-2.57-1.03-3.6-1.88-1.04-.85-1.87-1.95-2.49-3.29-.62-1.34-.93-2.94-.93-4.8ZM843.11,280.62c.46,0,1-.06,1.64-.18.63-.12,1.29-.29,1.97-.51.68-.22,1.35-.49,2.01-.82.67-.33,1.27-.69,1.82-1.08v-12.05c-2.62,0-4.81.23-6.57.69-1.76.46-3.16,1.06-4.21,1.82-1.05.75-1.79,1.61-2.23,2.57-.44.96-.66,1.96-.66,3.01,0,1.2.16,2.22.48,3.05.32.83.75,1.51,1.31,2.03.56.52,1.22.9,1.98,1.13.76.23,1.58.34,2.46.34Z"/>
    <path class="cls-1" d="M867.06,292.21c0-1.18.18-2.24.54-3.19.36-.95.83-1.8,1.41-2.55.58-.75,1.24-1.4,1.98-1.95s1.49-.99,2.23-1.34c-1.09-.63-1.94-1.42-2.54-2.37-.6-.95-.9-2.09-.9-3.42,0-.89.13-1.7.38-2.42.25-.72.6-1.38,1.05-1.98.45-.6.98-1.15,1.59-1.65.61-.5,1.29-.98,2.03-1.44-2.05-.98-3.66-2.36-4.81-4.14-1.16-1.78-1.74-3.9-1.74-6.37,0-2.03.44-3.83,1.31-5.4.87-1.57,2.03-2.9,3.47-3.98,1.44-1.08,3.09-1.91,4.95-2.49,1.86-.58,3.76-.87,5.7-.87h.03c2.34,0,4.46.27,6.39.82s3.54,1.4,4.85,2.55c.28-.28.68-.62,1.18-1,.5-.38,1.08-.75,1.74-1.11s1.39-.67,2.19-.92c.81-.25,1.67-.38,2.59-.38h1.31v6.39h-6.75c.74,1.48,1.11,3.19,1.11,5.11s-.41,3.84-1.23,5.49c-.82,1.65-1.93,3.06-3.32,4.24s-3.03,2.09-4.91,2.73c-1.88.64-3.88.97-5.99.97h-.03c-1.59,0-3.12-.15-4.59-.46-.68.48-1.23,1.04-1.67,1.69-.44.64-.66,1.42-.66,2.34,0,.85.17,1.53.51,2.05.34.51.82.91,1.46,1.18.63.27,1.42.45,2.36.54.94.09,2,.13,3.18.13h7.14c4.37,0,7.56.83,9.58,2.51,2.02,1.67,3.03,4.19,3.03,7.55,0,1.88-.47,3.66-1.41,5.34-.94,1.68-2.25,3.16-3.95,4.44-1.69,1.28-3.71,2.29-6.06,3.03-2.35.74-4.93,1.11-7.75,1.11h-.03c-2.82,0-5.28-.26-7.39-.79-2.11-.52-3.87-1.26-5.29-2.19-1.42-.94-2.48-2.07-3.19-3.39-.71-1.32-1.06-2.78-1.06-4.37ZM882.19,285.01c-1.11,0-2.18-.05-3.19-.15-1.01-.1-1.96-.27-2.83-.51-.52.66-.99,1.47-1.39,2.44-.4.97-.61,2.17-.61,3.59,0,2.69.82,4.76,2.46,6.22,1.64,1.46,4.27,2.19,7.89,2.19h.07c1.55,0,3.03-.16,4.45-.49,1.42-.33,2.67-.81,3.75-1.46,1.08-.64,1.94-1.45,2.57-2.42s.95-2.11.95-3.42c0-1.05-.1-1.95-.31-2.7-.21-.75-.61-1.38-1.21-1.87-.6-.49-1.44-.85-2.51-1.08-1.07-.23-2.47-.34-4.19-.34h-5.89ZM883.63,267.65h.03c1.31,0,2.41-.2,3.31-.59.9-.39,1.62-.97,2.16-1.72.55-.75.94-1.67,1.18-2.75.24-1.08.36-2.3.36-3.65,0-2.9-.6-5.04-1.79-6.4-1.19-1.36-3.07-2.05-5.65-2.05h-.03c-1.11,0-2.12.13-3.01.39-.9.26-1.67.7-2.31,1.31-.64.61-1.14,1.43-1.49,2.46s-.52,2.31-.52,3.86c0,1.2.13,2.35.38,3.46.25,1.1.67,2.07,1.26,2.91.59.84,1.38,1.51,2.38,2.01.99.5,2.24.75,3.75.75Z"/>
    <path class="cls-1" d="M924.3,285.63c-2.77,0-5.2-.48-7.29-1.44-2.09-.96-3.83-2.3-5.22-4.03s-2.45-3.78-3.14-6.17c-.7-2.39-1.05-5.02-1.05-7.88s.44-5.55,1.31-7.94c.87-2.39,2.09-4.44,3.65-6.16,1.56-1.71,3.41-3.04,5.55-3.98,2.14-.94,4.48-1.41,7.01-1.41,4.13,0,7.32,1.12,9.6,3.36,2.27,2.24,3.5,5.55,3.7,9.94.02,1.42.01,2.66-.03,3.72-.04,1.06-.15,1.99-.33,2.8h-22.66v.2c.09,2.49.45,4.62,1.08,6.39.63,1.77,1.46,3.22,2.47,4.34,1.01,1.12,2.18,1.94,3.49,2.46,1.31.51,2.67.77,4.09.77.94,0,1.89-.09,2.85-.26s1.88-.4,2.77-.69c.88-.28,1.69-.61,2.42-.98.73-.37,1.34-.74,1.82-1.11l1.38,3.21c-.63.63-1.44,1.24-2.41,1.83-.97.59-2.05,1.11-3.24,1.56-1.19.45-2.45.81-3.78,1.08-1.33.27-2.67.41-4.03.41ZM923.49,250.55c-1.09,0-2.11.19-3.05.57-.94.38-1.76,1.03-2.47,1.95-.71.92-1.29,2.14-1.74,3.67-.45,1.53-.73,3.45-.83,5.76h15.2c.04-.44.07-.89.08-1.38.01-.48.02-.93.02-1.34,0-1.22-.13-2.39-.39-3.5-.26-1.11-.68-2.1-1.24-2.95s-1.3-1.53-2.21-2.03-2.03-.75-3.36-.75Z"/>
    <path class="cls-1" d="M961.51,284.88l-.03-3.6,4.22-.92,16.6-45.75h7.43l16.18,45.79,4.19.88v3.6h-17.75v-3.6l5.34-.92-3.08-9.53h-19.52l-3.08,9.53,5.53.92v3.6h-16.05ZM983.48,244.99l-7.01,21.68h16.77l-6.98-21.68-1.38-5.31-1.41,5.31Z"/>
    <path class="cls-1" d="M1011.88,266.8c0-2.73.42-5.31,1.28-7.75.85-2.43,2.09-4.57,3.72-6.42,1.63-1.84,3.62-3.31,5.98-4.39,2.36-1.08,5.02-1.62,7.99-1.62,1.09,0,2.14.07,3.14.21,1,.14,1.94.32,2.8.52s1.63.43,2.31.67c.68.24,1.23.46,1.67.66l-.33,9.63h-4.42l-1.47-5.44c-.57-.74-1.28-1.32-2.14-1.72-.86-.4-1.92-.61-3.16-.61s-2.43.28-3.57.85c-1.13.57-2.14,1.42-3.03,2.57s-1.59,2.58-2.13,4.29c-.53,1.71-.81,3.72-.83,6.01-.02,2.95.27,5.46.87,7.53.6,2.07,1.4,3.76,2.41,5.06,1,1.3,2.17,2.24,3.5,2.83,1.33.59,2.72.88,4.16.88,1.02,0,1.99-.09,2.9-.26s1.74-.4,2.51-.69c.76-.28,1.46-.61,2.1-.97.63-.36,1.19-.71,1.67-1.06l1.44,3.14c-.59.61-1.32,1.21-2.19,1.79-.87.58-1.85,1.1-2.93,1.56-1.08.46-2.22.83-3.42,1.11-1.2.28-2.42.43-3.67.43-2.82,0-5.29-.49-7.42-1.46-2.13-.97-3.91-2.3-5.34-3.98-1.43-1.68-2.51-3.67-3.24-5.98s-1.11-4.78-1.13-7.42Z"/>
    <path class="cls-1" d="M1045.81,275.05c0-1.57.3-2.97.88-4.21.59-1.23,1.4-2.32,2.42-3.26,1.02-.94,2.23-1.74,3.62-2.39,1.39-.66,2.88-1.19,4.49-1.61,1.6-.41,3.27-.72,5.01-.92,1.74-.2,3.46-.32,5.16-.36v-1.74c0-1.53-.11-2.82-.33-3.88-.22-1.06-.6-1.92-1.13-2.59-.54-.67-1.25-1.15-2.15-1.44-.9-.29-2.03-.44-3.41-.44-1.18,0-2.36.11-3.54.33-1.18.22-2.31.49-3.39.8-1.08.32-2.08.66-2.98,1.02-.91.36-1.67.69-2.28,1h-.03l-1.47-3.14c.41-.39,1.15-.89,2.19-1.51,1.05-.61,2.29-1.2,3.72-1.77s2.97-1.06,4.62-1.47c1.65-.41,3.29-.62,4.93-.62,2.29,0,4.23.23,5.81.7,1.58.47,2.87,1.22,3.85,2.26.98,1.04,1.69,2.38,2.11,4.03.43,1.65.64,3.66.64,6.04v21.35h4.06v3.18c-.41.11-.91.23-1.49.38s-1.18.27-1.82.39c-.63.12-1.28.22-1.93.31-.66.09-1.28.13-1.87.13s-1.14-.03-1.59-.08c-.45-.05-.81-.2-1.1-.43s-.5-.57-.64-1.03c-.14-.46-.21-1.08-.21-1.87v-1.21c-.28.26-.75.65-1.39,1.16-.64.51-1.43,1.03-2.37,1.54s-2.01.96-3.21,1.34c-1.2.38-2.49.57-3.87.57-1.51,0-2.94-.2-4.31-.61-1.36-.4-2.57-1.03-3.6-1.88-1.04-.85-1.87-1.95-2.49-3.29-.62-1.34-.93-2.94-.93-4.8ZM1059.96,280.62c.46,0,1-.06,1.64-.18.63-.12,1.29-.29,1.97-.51.68-.22,1.35-.49,2.01-.82.67-.33,1.27-.69,1.82-1.08v-12.05c-2.62,0-4.81.23-6.57.69-1.76.46-3.16,1.06-4.21,1.82-1.05.75-1.79,1.61-2.23,2.57-.44.96-.66,1.96-.66,3.01,0,1.2.16,2.22.48,3.05.32.83.75,1.51,1.31,2.03.56.52,1.22.9,1.98,1.13.76.23,1.58.34,2.46.34Z"/>
    <path class="cls-1" d="M1097.95,285.63c-1.94,0-3.8-.38-5.57-1.13-1.77-.75-3.32-1.89-4.67-3.42-1.34-1.53-2.41-3.45-3.21-5.76-.8-2.31-1.2-5.04-1.2-8.19,0-2.88.44-5.57,1.33-8.07.88-2.5,2.16-4.67,3.82-6.52,1.66-1.84,3.67-3.29,6.04-4.34,2.37-1.05,5.04-1.57,8.01-1.57,1.05,0,2.08.05,3.1.16,1.01.11,1.98.25,2.9.43v-12.22l-6.45-.62v-3.11l11.95-1.41h.16l1.64,1.15v49.95h3.9v3.47c-.92.24-1.99.5-3.23.79-1.23.28-2.54.43-3.91.43-.59,0-1.1-.04-1.54-.11-.44-.08-.81-.24-1.11-.49s-.53-.61-.69-1.06c-.15-.46-.23-1.06-.23-1.8v-1.44c-.57.59-1.22,1.18-1.96,1.77-.74.59-1.57,1.11-2.49,1.57s-1.92.84-3.01,1.13c-1.09.29-2.28.44-3.57.44ZM1100.99,280.62c.87,0,1.69-.11,2.46-.33.77-.22,1.46-.49,2.1-.82.63-.33,1.2-.69,1.7-1.08.5-.39.92-.76,1.24-1.11v-24.83c-.15-.26-.43-.52-.83-.77-.4-.25-.9-.47-1.47-.67s-1.22-.35-1.92-.46c-.7-.11-1.44-.16-2.23-.16-1.46,0-2.84.28-4.13.84-1.29.56-2.42,1.45-3.39,2.69-.97,1.23-1.75,2.84-2.33,4.81-.58,1.98-.89,4.38-.93,7.22-.04,2.55.18,4.75.67,6.6.49,1.85,1.18,3.37,2.06,4.57s1.93,2.08,3.13,2.65c1.2.57,2.49.85,3.87.85Z"/>
    <path class="cls-1" d="M1141.6,285.63c-2.77,0-5.2-.48-7.29-1.44-2.09-.96-3.83-2.3-5.22-4.03s-2.45-3.78-3.14-6.17c-.7-2.39-1.05-5.02-1.05-7.88s.44-5.55,1.31-7.94c.87-2.39,2.09-4.44,3.65-6.16,1.56-1.71,3.41-3.04,5.55-3.98,2.14-.94,4.48-1.41,7.01-1.41,4.13,0,7.32,1.12,9.6,3.36,2.27,2.24,3.5,5.55,3.7,9.94.02,1.42.01,2.66-.03,3.72-.04,1.06-.15,1.99-.33,2.8h-22.66v.2c.09,2.49.45,4.62,1.08,6.39.63,1.77,1.46,3.22,2.47,4.34,1.01,1.12,2.18,1.94,3.49,2.46,1.31.51,2.67.77,4.09.77.94,0,1.89-.09,2.85-.26s1.88-.4,2.77-.69c.88-.28,1.69-.61,2.42-.98.73-.37,1.34-.74,1.82-1.11l1.38,3.21c-.63.63-1.44,1.24-2.41,1.83-.97.59-2.05,1.11-3.24,1.56-1.19.45-2.45.81-3.78,1.08-1.33.27-2.67.41-4.03.41ZM1140.79,250.55c-1.09,0-2.11.19-3.05.57-.94.38-1.76,1.03-2.47,1.95-.71.92-1.29,2.14-1.74,3.67-.45,1.53-.73,3.45-.83,5.76h15.2c.04-.44.07-.89.08-1.38.01-.48.02-.93.02-1.34,0-1.22-.13-2.39-.39-3.5-.26-1.11-.68-2.1-1.24-2.95s-1.3-1.53-2.21-2.03-2.03-.75-3.36-.75Z"/>
    <path class="cls-1" d="M1162.34,284.88v-3.54l4.13-.59v-27.28l-4.59-1.44v-3.93l9.33-1.34h.16l1.57,1.31v2.55l-.03,1.41c.72-.66,1.61-1.29,2.67-1.92s2.19-1.18,3.41-1.67,2.45-.89,3.7-1.2c1.26-.31,2.45-.46,3.59-.46,2.42,0,4.36.39,5.81,1.18,1.45.79,2.56,2.02,3.32,3.7.63-.52,1.47-1.08,2.51-1.65,1.04-.58,2.17-1.11,3.39-1.59,1.22-.48,2.47-.87,3.73-1.18,1.27-.31,2.43-.46,3.5-.46,2.14,0,3.9.29,5.29.87,1.39.58,2.48,1.49,3.28,2.73.8,1.24,1.35,2.85,1.67,4.81.32,1.97.47,4.32.47,7.07v18.47l4.78.59v3.54h-16.11v-3.54l4.03-.59v-18.27c0-1.79-.09-3.35-.26-4.68-.18-1.33-.52-2.44-1.05-3.32s-1.25-1.55-2.18-2c-.93-.45-2.14-.67-3.65-.67-.68,0-1.4.08-2.16.25s-1.53.38-2.29.64c-.76.26-1.5.57-2.19.92-.7.35-1.31.71-1.83,1.08.41,2.05.62,4.61.62,7.66v18.41l4.75.59v3.54h-16.47v-3.54l4.42-.59v-18.44c0-1.75-.08-3.27-.25-4.58s-.48-2.4-.95-3.28c-.47-.87-1.14-1.53-2.01-1.96-.87-.44-2.03-.66-3.47-.66-1.57,0-3.19.29-4.85.87-1.66.58-3.11,1.33-4.36,2.24v25.81l4.49.59v3.54h-15.92Z"/>
    <path class="cls-1" d="M1234.68,301.58c-.33,0-.68-.01-1.05-.03s-.73-.05-1.08-.1c-.35-.04-.67-.09-.95-.15-.28-.05-.49-.12-.62-.18v-6.06c.13.07.34.13.62.2s.61.13.97.18c.36.05.74.09,1.13.11.39.02.76.03,1.11.03.7,0,1.47-.09,2.31-.28.84-.19,1.72-.63,2.64-1.34.92-.71,1.86-1.78,2.82-3.21.96-1.43,1.91-3.39,2.85-5.88h-4.13l-12.25-32.82-3.14-.92v-3.54h16.51v3.54l-5.24.92,6.68,20.11,2.95,9.66,2.62-9.66,5.7-20.11-4.42-.92v-3.54h13.69v3.54l-3.37.92c-1.7,5.39-3.17,10.08-4.41,14.05-1.23,3.97-2.28,7.34-3.14,10.09-.86,2.75-1.56,4.93-2.08,6.53-.52,1.6-.93,2.73-1.21,3.39-1.05,2.62-2.08,4.9-3.1,6.83-1.01,1.93-2.12,3.54-3.32,4.81-1.2,1.28-2.53,2.23-3.98,2.87-1.45.63-3.15.95-5.09.95Z"/>
  </g>
  <line class="cls-3" x1="400.27" y1="272.43" x2="576.75" y2="272.43"/>
  <line class="cls-3" x1="1296.53" y1="272.43" x2="1473.01" y2="272.43"/>
  <path class="cls-1" d="M306.96,301.08c-17.46,1.45-26.27-12.97-25.89-35.55,26.48-2.98,44.45-16.47,45.99-50.24,25.95-33.72,31.09-67.77-.77-102.41.07-39.34-19.26-55.68-57.58-49.47,0,0-20.68-11.98-21.83-10.82-62.32-23.52-115.81-12.61-166.37,9.66-47.94-2.03-60.23,18.46-59.51,47.15-26.77,36.99-29.29,71.29.39,102.02,3.54,39.89,26.64,56.01,64.93,53.72,45.53,18.03,91.79,24.24,139.51,6.96,14.95,20.8,29.05,42.13,71.49,45.99,27.75-3.22,37.41-22,28.18-34.47-2.38-2.97-6.42-7.46-10.91-6.88s-12.03.65-14.27,11.3c-2.25,10.65,6.67,13.04,6.67,13.04Z"/>
  <g>
    <path class="cls-1" d="M404.34,179.05v-7.29l11.13-1.79v-82.68l-10.87-1.79v-7.29h18.42c2.08,0,3.99-.05,5.73-.17,1.74-.11,3.42-.22,5.03-.33,1.61-.11,3.2-.22,4.77-.33,1.57-.11,3.21-.17,4.93-.17,6.14,0,11.37.5,15.7,1.49,4.33.99,7.86,2.46,10.6,4.41,2.74,1.94,4.74,4.33,6,7.16,1.26,2.83,1.89,6.07,1.89,9.74,0,3.18-.43,6.16-1.29,8.94-.86,2.78-2.12,5.28-3.78,7.49-1.66,2.21-3.71,4.1-6.16,5.66-2.45,1.57-5.27,2.68-8.45,3.35,4.06-.09,7.75.41,11.06,1.49,3.31,1.08,6.14,2.65,8.48,4.7,2.34,2.05,4.15,4.53,5.43,7.42,1.28,2.89,1.92,6.13,1.92,9.71,0,3.98-.65,7.84-1.95,11.59-1.3,3.75-3.53,7.07-6.69,9.94-3.16,2.87-7.36,5.18-12.62,6.92-5.26,1.75-11.84,2.62-19.74,2.62-1.68,0-3.25-.04-4.7-.13-1.46-.09-2.99-.18-4.6-.27-1.61-.09-3.39-.18-5.33-.27-1.94-.09-4.24-.13-6.89-.13h-18.02ZM430.57,85.84v36.5c.84.09,1.83.16,2.98.2,1.15.04,2.32.07,3.51.07h6.49c6.63,0,11.45-1.6,14.48-4.8,3.03-3.2,4.54-8.09,4.54-14.67,0-3.05-.34-5.7-1.03-7.95s-1.82-4.13-3.41-5.63c-1.59-1.5-3.71-2.63-6.36-3.38-2.65-.75-5.94-1.13-9.87-1.13-3.22,0-5.7.11-7.42.33-1.72.22-3.03.38-3.91.46ZM430.57,131.15v39.62c.49.31,1.21.54,2.19.7.97.16,2.05.27,3.25.33,1.19.07,2.44.11,3.74.13,1.3.02,2.51.03,3.61.03,4.59,0,8.49-.47,11.69-1.42,3.2-.95,5.82-2.31,7.85-4.07,2.03-1.77,3.5-3.93,4.41-6.49.9-2.56,1.36-5.45,1.36-8.68,0-3.58-.43-6.65-1.29-9.21-.86-2.56-2.24-4.66-4.14-6.29-1.9-1.63-4.33-2.84-7.29-3.61-2.96-.77-6.56-1.16-10.8-1.16h-7.75c-1.33,0-2.58.01-3.78.03-1.19.02-2.21.06-3.05.1Z"/>
    <path class="cls-1" d="M495.83,179.05v-7.29l10.8-1.13v-55.12l-9.28-2.92v-7.95l18.68-2.72h.33l3.11,2.65v3.98l-.07,8.28h.13c.35-.57,1.17-1.69,2.45-3.35,1.28-1.66,2.98-3.36,5.1-5.1,2.12-1.74,4.63-3.3,7.52-4.67,2.89-1.37,6.08-2.05,9.57-2.05,1.02,0,1.86.06,2.52.17.66.11,1.24.25,1.72.43v16.23c-.18-.13-.51-.28-.99-.43-.49-.15-1.07-.3-1.76-.43-.68-.13-1.43-.25-2.25-.36-.82-.11-1.67-.17-2.55-.17-4.95,0-8.95.5-12.02,1.49-3.07.99-5.56,2.18-7.45,3.54v48.5l18.02,1.26v7.16h-43.59Z"/>
    <path class="cls-1" d="M557.04,141.02c0-6.27,1.03-11.85,3.08-16.73,2.05-4.88,4.76-9,8.11-12.36,3.36-3.36,7.18-5.91,11.46-7.65,4.28-1.74,8.63-2.62,13.05-2.62,6.05,0,11.22,1.03,15.5,3.08,4.28,2.05,7.79,4.87,10.53,8.45,2.74,3.58,4.75,7.77,6.03,12.59,1.28,4.81,1.92,9.96,1.92,15.44,0,6.32-1.03,11.93-3.08,16.83s-4.75,9.02-8.08,12.36c-3.33,3.34-7.14,5.86-11.43,7.59-4.28,1.72-8.66,2.58-13.12,2.58-6.01,0-11.15-1.03-15.44-3.08-4.29-2.05-7.81-4.87-10.57-8.45-2.76-3.58-4.78-7.77-6.06-12.59-1.28-4.81-1.92-9.96-1.92-15.44ZM591.83,172.43c6.32,0,10.96-2.49,13.95-7.49,2.98-4.99,4.47-12.48,4.47-22.46,0-4.55-.33-8.81-.99-12.79-.66-3.98-1.72-7.43-3.18-10.37-1.46-2.94-3.35-5.26-5.66-6.96-2.32-1.7-5.14-2.55-8.45-2.55-6.32,0-10.98,2.5-13.98,7.49-3,4.99-4.5,12.48-4.5,22.46,0,4.55.34,8.8,1.03,12.75.68,3.95,1.76,7.41,3.21,10.37,1.46,2.96,3.35,5.29,5.66,6.99,2.32,1.7,5.13,2.55,8.45,2.55Z"/>
    <path class="cls-1" d="M660.46,180.11l-21.46-67.44-7.42-1.86v-7.16h33.26v7.16l-10.73,1.86,10.93,39.29,3.71,16.56,3.51-16.5,13.78-48.36h14.38l13.65,48.3,3.58,16.36,3.98-16.23,10.6-39.29-10.34-1.99v-7.16h29.15v7.16l-7.82,1.86-20.41,67.44h-14.24l-14.51-49.16-3.18-14.84-2.38,14.84-14.31,49.16h-13.71Z"/>
    <path class="cls-1" d="M758.11,179.05v-7.29l8.88-1.13v-55.12l-9.28-2.92v-7.95l18.88-2.72h.33l3.25,2.65v5.17l-.13,2.85c1.46-1.33,3.26-2.62,5.4-3.88,2.14-1.26,4.43-2.38,6.86-3.38,2.43-.99,4.92-1.8,7.49-2.42,2.56-.62,5.01-.93,7.35-.93,4.37,0,7.97.6,10.8,1.79,2.83,1.19,5.04,3.07,6.66,5.63,1.61,2.56,2.73,5.82,3.35,9.77.62,3.95.93,8.71.93,14.28v37.17l9.81,1.13v7.29h-33.32v-7.29l8.74-1.13v-37.23c0-3.53-.15-6.63-.46-9.28s-.94-4.86-1.89-6.63c-.95-1.77-2.31-3.09-4.07-3.98-1.77-.88-4.09-1.33-6.96-1.33-3.36,0-6.72.61-10.1,1.82-3.38,1.22-6.33,2.75-8.84,4.6v52.01l9.34,1.13v7.29h-32.99Z"/>
    <path class="cls-1" d="M862.66,116.11l-3.25-48.63h15.9l-3.38,48.63h-9.28Z"/>
    <path class="cls-1" d="M900.82,174.81v-17.36h9.41l2.72,9.8c.4.71,1.08,1.4,2.05,2.09.97.69,2.12,1.3,3.44,1.86,1.33.55,2.8.99,4.44,1.33,1.63.33,3.33.5,5.1.5,2.74,0,4.99-.3,6.76-.89,1.77-.6,3.16-1.38,4.17-2.35,1.02-.97,1.71-2.11,2.09-3.41.37-1.3.56-2.64.56-4.01,0-1.72-.39-3.28-1.16-4.67-.77-1.39-1.95-2.72-3.54-3.98-1.59-1.26-3.63-2.49-6.13-3.71-2.5-1.21-5.47-2.48-8.91-3.81-3.58-1.37-6.67-2.83-9.28-4.37-2.61-1.55-4.77-3.28-6.49-5.2s-2.99-4.06-3.81-6.43c-.82-2.36-1.23-5.05-1.23-8.05s.7-5.8,2.09-8.25c1.39-2.45,3.31-4.56,5.76-6.33,2.45-1.77,5.34-3.12,8.68-4.07,3.33-.95,6.94-1.42,10.83-1.42,2.74,0,5.26.17,7.55.5,2.3.33,4.37.73,6.23,1.19s3.48.94,4.87,1.42c1.39.49,2.51.86,3.35,1.13v16.56l-8.81-.07-2.91-8.55c-.57-1.15-1.82-2.22-3.74-3.21-1.92-.99-4.38-1.49-7.39-1.49-2.3-.04-4.26.18-5.9.66-1.64.49-2.96,1.15-3.98,1.99-1.02.84-1.77,1.82-2.25,2.95-.49,1.13-.73,2.33-.73,3.61,0,2.38.51,4.33,1.52,5.83,1.02,1.5,2.35,2.78,4.01,3.84s3.54,1.99,5.66,2.78c2.12.79,4.28,1.68,6.49,2.65,3.05,1.33,5.95,2.72,8.71,4.17,2.76,1.46,5.2,3.12,7.32,5,2.12,1.88,3.81,4.06,5.07,6.56,1.26,2.5,1.89,5.44,1.89,8.84s-.65,6.4-1.95,9.14c-1.3,2.74-3.19,5.07-5.67,6.99-2.47,1.92-5.49,3.4-9.04,4.44-3.56,1.04-7.56,1.56-12.02,1.56-2.38,0-4.86-.2-7.42-.6-2.56-.4-5.03-.88-7.39-1.46-2.36-.57-4.51-1.2-6.43-1.89-1.92-.68-3.46-1.29-4.6-1.82Z"/>
    <path class="cls-2" d="M1011.99,179.05v-7.29l11.13-1.79v-82.68l-10.87-1.79v-7.29h18.42c2.08,0,3.99-.05,5.73-.17,1.74-.11,3.42-.22,5.03-.33,1.61-.11,3.2-.22,4.77-.33,1.57-.11,3.21-.17,4.93-.17,6.14,0,11.37.5,15.7,1.49,4.33.99,7.86,2.46,10.6,4.41,2.74,1.94,4.74,4.33,6,7.16,1.26,2.83,1.89,6.07,1.89,9.74,0,3.18-.43,6.16-1.29,8.94-.86,2.78-2.12,5.28-3.78,7.49-1.66,2.21-3.71,4.1-6.16,5.66-2.45,1.57-5.27,2.68-8.45,3.35,4.06-.09,7.75.41,11.06,1.49,3.31,1.08,6.14,2.65,8.48,4.7,2.34,2.05,4.15,4.53,5.43,7.42,1.28,2.89,1.92,6.13,1.92,9.71,0,3.98-.65,7.84-1.95,11.59-1.3,3.75-3.53,7.07-6.69,9.94-3.16,2.87-7.36,5.18-12.62,6.92-5.26,1.75-11.84,2.62-19.74,2.62-1.68,0-3.25-.04-4.7-.13-1.46-.09-2.99-.18-4.6-.27-1.61-.09-3.39-.18-5.33-.27-1.94-.09-4.24-.13-6.89-.13h-18.02ZM1038.22,85.84v36.5c.84.09,1.83.16,2.98.2,1.15.04,2.32.07,3.51.07h6.49c6.63,0,11.45-1.6,14.48-4.8,3.03-3.2,4.54-8.09,4.54-14.67,0-3.05-.34-5.7-1.03-7.95s-1.82-4.13-3.41-5.63c-1.59-1.5-3.71-2.63-6.36-3.38-2.65-.75-5.94-1.13-9.87-1.13-3.22,0-5.7.11-7.42.33-1.72.22-3.03.38-3.91.46ZM1038.22,131.15v39.62c.49.31,1.21.54,2.19.7.97.16,2.05.27,3.25.33,1.19.07,2.44.11,3.74.13,1.3.02,2.51.03,3.61.03,4.59,0,8.49-.47,11.69-1.42,3.2-.95,5.82-2.31,7.85-4.07,2.03-1.77,3.5-3.93,4.41-6.49.9-2.56,1.36-5.45,1.36-8.68,0-3.58-.43-6.65-1.29-9.21-.86-2.56-2.24-4.66-4.14-6.29-1.9-1.63-4.33-2.84-7.29-3.61-2.96-.77-6.56-1.16-10.8-1.16h-7.75c-1.33,0-2.58.01-3.78.03-1.19.02-2.21.06-3.05.1Z"/>
    <path class="cls-2" d="M1103.48,179.05v-7.29l10.8-1.13v-55.12l-9.28-2.92v-7.95l18.68-2.72h.33l3.11,2.65v3.98l-.07,8.28h.13c.35-.57,1.17-1.69,2.45-3.35,1.28-1.66,2.98-3.36,5.1-5.1,2.12-1.74,4.63-3.3,7.52-4.67,2.89-1.37,6.08-2.05,9.57-2.05,1.02,0,1.86.06,2.52.17.66.11,1.24.25,1.72.43v16.23c-.18-.13-.51-.28-.99-.43-.49-.15-1.07-.3-1.76-.43-.68-.13-1.43-.25-2.25-.36-.82-.11-1.67-.17-2.55-.17-4.95,0-8.95.5-12.02,1.49-3.07.99-5.56,2.18-7.45,3.54v48.5l18.02,1.26v7.16h-43.59Z"/>
    <path class="cls-2" d="M1164.7,179.05v-7.29l10.93-1.13v-55.12l-9.28-2.92v-7.95l20.21-2.72h.33l3.51,2.65v66.12l10.73,1.06v7.29h-36.44ZM1180.86,89.42c-1.28,0-2.45-.23-3.51-.7s-1.97-1.1-2.72-1.92c-.75-.82-1.33-1.79-1.72-2.92s-.6-2.33-.6-3.61c0-1.41.21-2.76.63-4.04.42-1.28,1.04-2.42,1.86-3.41.82-.99,1.84-1.79,3.08-2.38,1.24-.6,2.67-.89,4.31-.89h.07c1.46,0,2.74.27,3.84.79,1.1.53,2.03,1.23,2.78,2.09.75.86,1.33,1.84,1.72,2.95s.6,2.25.6,3.44c0,1.5-.21,2.89-.63,4.17-.42,1.28-1.06,2.4-1.92,3.35-.86.95-1.93,1.7-3.21,2.25-1.28.55-2.78.83-4.51.83h-.07Z"/>
    <path class="cls-2" d="M1220.21,164.94v-51.68h-9.61v-6.23c1.37-.44,2.73-.9,4.07-1.39,1.35-.48,2.33-.93,2.95-1.33,1.46-1.02,2.69-2.67,3.71-4.97.35-.79.79-1.84,1.33-3.15.53-1.3,1.05-2.64,1.56-4.01.51-1.37.97-2.67,1.39-3.91.42-1.24.72-2.21.89-2.92h8.48v18.29h22.19v9.61h-22.19v39.62c0,3.93.05,7,.17,9.21.11,2.21.42,3.84.93,4.9.51,1.06,1.27,1.71,2.28,1.95,1.02.24,2.41.36,4.17.36h.07c1.28,0,2.62-.09,4.01-.27,1.39-.18,2.75-.39,4.07-.63,1.33-.24,2.54-.51,3.64-.79,1.1-.29,1.99-.56,2.65-.83h.07l2.25,6.49c-1.06.8-2.52,1.62-4.37,2.48s-3.88,1.65-6.06,2.35c-2.19.71-4.45,1.29-6.79,1.76-2.34.46-4.55.7-6.63.7h-.13c-2.34,0-4.44-.27-6.29-.79-1.86-.53-3.44-1.4-4.74-2.62-1.3-1.21-2.31-2.83-3.01-4.84-.71-2.01-1.06-4.47-1.06-7.39Z"/>
    <path class="cls-2" d="M1266.32,179.05v-7.29l10.93-1.13v-55.12l-9.28-2.92v-7.95l20.21-2.72h.33l3.51,2.65v66.12l10.73,1.06v7.29h-36.44ZM1282.49,89.42c-1.28,0-2.45-.23-3.51-.7s-1.97-1.1-2.72-1.92c-.75-.82-1.33-1.79-1.72-2.92s-.6-2.33-.6-3.61c0-1.41.21-2.76.63-4.04.42-1.28,1.04-2.42,1.86-3.41.82-.99,1.84-1.79,3.08-2.38,1.24-.6,2.67-.89,4.31-.89h.07c1.46,0,2.74.27,3.84.79,1.1.53,2.03,1.23,2.78,2.09.75.86,1.33,1.84,1.72,2.95s.6,2.25.6,3.44c0,1.5-.21,2.89-.63,4.17-.42,1.28-1.06,2.4-1.92,3.35-.86.95-1.93,1.7-3.21,2.25-1.28.55-2.78.83-4.51.83h-.07Z"/>
    <path class="cls-2" d="M1315.61,174.81v-17.36h9.41l2.72,9.8c.4.71,1.08,1.4,2.05,2.09.97.69,2.12,1.3,3.44,1.86,1.33.55,2.8.99,4.44,1.33,1.63.33,3.33.5,5.1.5,2.74,0,4.99-.3,6.76-.89,1.77-.6,3.16-1.38,4.17-2.35,1.02-.97,1.71-2.11,2.09-3.41.37-1.3.56-2.64.56-4.01,0-1.72-.39-3.28-1.16-4.67-.77-1.39-1.95-2.72-3.54-3.98-1.59-1.26-3.63-2.49-6.13-3.71-2.5-1.21-5.47-2.48-8.91-3.81-3.58-1.37-6.67-2.83-9.28-4.37-2.61-1.55-4.77-3.28-6.49-5.2s-2.99-4.06-3.81-6.43c-.82-2.36-1.23-5.05-1.23-8.05s.7-5.8,2.09-8.25c1.39-2.45,3.31-4.56,5.76-6.33,2.45-1.77,5.34-3.12,8.68-4.07,3.33-.95,6.94-1.42,10.83-1.42,2.74,0,5.26.17,7.55.5,2.3.33,4.37.73,6.23,1.19s3.48.94,4.87,1.42c1.39.49,2.51.86,3.35,1.13v16.56l-8.81-.07-2.91-8.55c-.57-1.15-1.82-2.22-3.74-3.21-1.92-.99-4.38-1.49-7.39-1.49-2.3-.04-4.26.18-5.9.66-1.64.49-2.96,1.15-3.98,1.99-1.02.84-1.77,1.82-2.25,2.95-.49,1.13-.73,2.33-.73,3.61,0,2.38.51,4.33,1.52,5.83,1.02,1.5,2.35,2.78,4.01,3.84s3.54,1.99,5.66,2.78c2.12.79,4.28,1.68,6.49,2.65,3.05,1.33,5.95,2.72,8.71,4.17,2.76,1.46,5.2,3.12,7.32,5,2.12,1.88,3.81,4.06,5.07,6.56,1.26,2.5,1.89,5.44,1.89,8.84s-.65,6.4-1.95,9.14c-1.3,2.74-3.19,5.07-5.67,6.99-2.47,1.92-5.49,3.4-9.04,4.44-3.56,1.04-7.56,1.56-12.02,1.56-2.38,0-4.86-.2-7.42-.6-2.56-.4-5.03-.88-7.39-1.46-2.36-.57-4.51-1.2-6.43-1.89-1.92-.68-3.46-1.29-4.6-1.82Z"/>
    <path class="cls-2" d="M1382.86,179.05v-7.29l8.02-1.13v-92.42l-10.86-1.19v-6.29l22-2.98h.33l3.25,2.32.07,30.54-.53,11.99c1.24-1.1,2.78-2.27,4.64-3.51,1.86-1.24,3.93-2.38,6.23-3.45,2.3-1.06,4.76-1.93,7.39-2.62,2.63-.68,5.33-1.03,8.12-1.03,4.28,0,7.82.61,10.6,1.82,2.78,1.22,5,3.1,6.66,5.66,1.66,2.56,2.82,5.83,3.48,9.81.66,3.98.99,8.7.99,14.18v37.17l9.74,1.13v7.29h-33.32v-7.16l8.81-1.19v-37.3c0-3.53-.16-6.63-.5-9.28-.33-2.65-.98-4.86-1.95-6.63-.97-1.77-2.35-3.09-4.14-3.98-1.79-.88-4.14-1.33-7.06-1.33-3.22,0-6.55.55-9.97,1.66-3.42,1.1-6.48,2.65-9.18,4.64v52.14l9.61,1.13v7.29h-32.4Z"/>
  </g>
  <path class="cls-4" d="M88.79,92.63c-.07-.4.32-.5.64-.76,11.57-9.23,79.33-4.66,122.3-4.66,48.71,0,63.99,12.95,63.99,34.2,0,16.06-14.51,25.39-28.5,27.46-6.74,1.04-11.14,3.11-11.14,7,0,4.4,4.41,6.48,11.14,6.48,26.43,0,41.45,15.29,41.45,39.38,0,29.02-26.94,48.19-69.18,48.19-36.79,0-56.48-2.59-77.21-2.59-19.57,0-49.04,3.06-52.79,2.48-.43-.07-.62-.31-.73-.73-10.12-41.17,7.37-114.22.02-156.43ZM193.92,207.83c0-15.71-7.31-27.77-17.17-27.77-10.6,0-16.44,12.06-16.44,27.77,0,12.42,5.85,23.02,16.44,23.02,9.87,0,17.17-10.6,17.17-23.02ZM192.82,130.73c0-13.15-4.75-24.48-16.08-24.48-13.1,0-16.11,14.21-15.2,29.28.6,9.97,9.93,17.57,19.62,15.15,8.15-2.03,11.65-9.92,11.65-19.95Z"/>
  <g>
    <path class="cls-5" d="M212.43,55.65l5.67-.44c4.87-15.25,14.15-26.48,32.27-29.65,10,4.55,19.86,13.98,29.65,25.73,12.02-6.33,24.06-10.83,36.19-10.47-5.57-7.72-1.91-13.58,7.41-18.32,8.86,5.04,9.35,11.81,2.62,20.06l-30.53,61.05c-27.93-21.04-60.9-29.64-95.94-33.14l-.44,6.98c35.2,5.07,67.18,14.65,93.76,31.83l-13.08,14.83c-24.38-22.88-60.75-32.28-101.61-36.63,4.03-10.25,3.07-33.54,2.46-55.91-7.43-8.79-8.08-16.51,1.75-22.59,5.26.6,9.47,2.99,10.49,10.93l-7.43,7c11.85,5.67,20.89,15.09,26.74,28.73Z"/>
    <path class="cls-5" d="M249.92,0l.78.78c8.11.2,11.58,5.5,13.02,13.02-2.63,5.76-6.43,7.87-11.08,7.38-9.03-2.08-11.83-6.38-11.85-11.66.39-3.99,2.46-7.46,9.13-9.52Z"/>
  </g>
</svg>