<?xml version="1.0" encoding="UTF-8"?>
<svg id="_レイヤー_1" data-name="レイヤー 1" xmlns="http://www.w3.org/2000/svg" viewBox="0 0 371.49 339.18">
  <defs>
    <style>
      .cls-1 {
        fill: navy;
      }

      .cls-2 {
        fill: #f8f9fa;
      }

      .cls-3 {
        fill: #e7121b;
      }
    </style>
  </defs>
  <path class="cls-1" d="M327.32,321.05c-18.62,1.55-28.01-13.83-27.61-37.91,28.24-3.18,47.4-17.56,49.04-53.57,27.67-35.96,33.16-72.27-.82-109.21.07-41.95-20.53-59.38-61.4-52.75,0,0-22.05-12.77-23.28-11.54-66.46-25.08-123.49-13.45-177.41,10.3-51.12-2.16-64.23,19.68-63.46,50.28-28.55,39.45-31.23,76.02.41,108.79,3.77,42.53,28.41,59.73,69.23,57.28,48.55,19.23,97.88,25.85,148.77,7.42,15.95,22.18,30.98,44.92,76.24,49.04,29.6-3.44,39.9-23.46,30.05-36.76-2.54-3.16-6.85-7.95-11.64-7.33-4.79.62-12.83.7-15.22,12.05-2.4,11.36,7.11,13.91,7.11,13.91Z"/>
  <path class="cls-2" d="M94.68,98.77c-.07-.43.34-.54.68-.81,12.34-9.85,84.6-4.97,130.41-4.97,51.94,0,68.24,13.81,68.24,36.47,0,17.13-15.47,27.07-30.39,29.29-7.18,1.11-11.88,3.32-11.88,7.46,0,4.7,4.7,6.91,11.88,6.91,28.18,0,44.2,16.3,44.2,41.99,0,30.94-28.73,51.39-73.77,51.39-39.23,0-60.23-2.76-82.33-2.76-20.87,0-52.3,3.27-56.3,2.64-.46-.07-.66-.33-.77-.78-10.8-43.9,7.85-121.8.02-166.81ZM206.79,221.62c0-16.75-7.79-29.61-18.31-29.61-11.3,0-17.54,12.86-17.54,29.61,0,13.25,6.24,24.55,17.54,24.55,10.52,0,18.31-11.3,18.31-24.55ZM205.61,139.41c0-14.03-5.07-26.11-17.14-26.11-13.97,0-17.17,15.15-16.2,31.22.64,10.63,10.59,18.73,20.93,16.15,8.69-2.17,12.42-10.57,12.42-21.27Z"/>
  <path class="cls-3" d="M226.53,59.34l6.05-.47c5.19-16.26,15.09-28.24,34.41-31.62,10.66,4.86,21.18,14.91,31.62,27.44,12.81-6.75,25.66-11.55,38.6-11.16-5.94-8.23-2.03-14.49,7.91-19.53,9.44,5.38,9.97,12.6,2.79,21.39l-32.55,65.1c-29.79-22.43-64.94-31.6-102.3-35.34l-.47,7.44c37.54,5.4,71.64,15.62,99.98,33.94l-13.95,15.81c-25.99-24.4-64.78-34.42-108.35-39.06,4.3-10.93,3.27-35.77,2.62-59.61-7.93-9.37-8.62-17.61,1.87-24.09,5.6.64,10.1,3.19,11.19,11.66l-7.93,7.46c12.64,6.04,22.27,16.09,28.52,30.64Z"/>
  <path class="cls-3" d="M266.49,0l.83.83c8.65.21,12.35,5.86,13.88,13.89-2.8,6.15-6.86,8.39-11.81,7.87-9.63-2.22-12.62-6.8-12.64-12.44.41-4.26,2.63-7.96,9.74-10.15Z"/>
</svg>