<?xml version="1.0" encoding="UTF-8"?>
<svg id="_レイヤー_1" data-name="レイヤー 1" xmlns="http://www.w3.org/2000/svg" xmlns:xlink="http://www.w3.org/1999/xlink" viewBox="0 0 1244.05 733.72">
  <defs>
    <style>
      .cls-1 {
        fill: none;
      }

      .cls-2 {
        fill: #00137b;
      }

      .cls-3 {
        fill: navy;
      }

      .cls-4 {
        fill: #c62828;
      }

      .cls-5 {
        fill: #fff;
      }

      .cls-6 {
        fill: #f00921;
      }

      .cls-7 {
        fill: #f8f9fa;
      }

      .cls-8 {
        fill: #333;
      }

      .cls-9 {
        clip-path: url(#clippath);
      }
    </style>
    <clipPath id="clippath">
      <rect class="cls-1" x="69.46" y="60.97" width="1080.01" height="590.65" rx="20" ry="20"/>
    </clipPath>
  </defs>
  <g class="cls-9">
    <rect class="cls-7" x="69.46" y="60.97" width="1080.01" height="590.65" rx="20" ry="20"/>
    <g>
      <path class="cls-2" d="M0,226.45c2.51.36,5.02.94,7.53,1.71C118.03,25.11,228.52,214.07,339.02,28.43c-2.51-1.17-5.02-2.54-7.53-4.09C220.99,193.36,110.5,5.19,0,226.45Z"/>
      <path class="cls-5" d="M15.06,231.1c110.5-185.64,220.99,3.32,331.49-199.74-2.51-.78-5.02-1.75-7.53-2.93C228.52,214.07,118.03,25.11,7.53,228.17c2.51.78,5.02,1.76,7.53,2.93Z"/>
      <path class="cls-6" d="M22.59,235.18c110.5-169.02,220.99,19.15,331.49-202.11-2.51-.36-5.02-.94-7.53-1.71C236.05,234.42,125.56,45.45,15.06,231.1c2.51,1.17,5.02,2.54,7.53,4.09Z"/>
    </g>
    <g>
      <path class="cls-2" d="M797.32,43.08c-.86,4.76-1.72,9.54-2.57,14.32,131.31-37.66,262.62,121.52,393.93,81.28.86-4.8,1.72-9.6,2.57-14.42-131.31,42.87-262.62-116.28-393.93-81.17Z"/>
      <path class="cls-5" d="M792.17,71.76c131.31-40.24,262.62,118.93,393.93,81.28.86-4.78,1.72-9.57,2.57-14.37-131.31,40.24-262.62-118.93-393.93-81.28-.86,4.78-1.72,9.57-2.57,14.37Z"/>
      <path class="cls-6" d="M789.6,86.18c131.31-42.87,262.62,116.28,393.93,81.17.86-4.76,1.72-9.54,2.57-14.32-131.31,37.66-262.62-121.52-393.93-81.28-.86,4.8-1.72,9.6-2.57,14.42Z"/>
    </g>
    <g>
      <path class="cls-2" d="M1244.05,514.66c-2.43-.65-4.86-1.48-7.28-2.5-112.14,198.33-224.28,12.04-336.43,194.07,2.43,1.37,4.86,2.91,7.28,4.62,112.14-166.43,224.29,19.16,336.43-196.19Z"/>
      <path class="cls-5" d="M1229.48,508.58c-112.14,182.03-224.28-4.26-336.43,194.07,2.43,1.02,4.86,2.21,7.28,3.58,112.14-182.03,224.28,4.26,336.43-194.07-2.43-1.02-4.86-2.21-7.28-3.58Z"/>
      <path class="cls-6" d="M1222.19,503.97c-112.14,166.43-224.28-19.16-336.43,196.19,2.43.65,4.86,1.48,7.28,2.5,112.14-198.33,224.29-12.04,336.43-194.07-2.43-1.37-4.86-2.91-7.28-4.62Z"/>
    </g>
    <g>
      <path class="cls-2" d="M425.95,738.61c1.63-5.23,3.26-10.51,4.89-15.84-124.5,41.72-249.01-208.41-373.51-158.94-1.63,5.43-3.26,10.91-4.89,16.45,124.5-57.42,249.01,192.5,373.51,158.34Z"/>
      <path class="cls-5" d="M435.74,706.63c-124.5,49.46-249.01-200.66-373.51-158.94-1.63,5.33-3.26,10.71-4.89,16.14,124.5-49.46,249.01,200.66,373.51,158.94,1.63-5.33,3.26-10.71,4.89-16.14Z"/>
      <path class="cls-6" d="M440.63,690.18c-124.5,57.42-249.01-192.5-373.51-158.34-1.63,5.23-3.26,10.51-4.89,15.84,124.5-41.72,249.01,208.41,373.51,158.94,1.63-5.43,3.26-10.91,4.89-16.45Z"/>
    </g>
  </g>
  <g>
    <path class="cls-3" d="M597.76,224.71v5.17h5.04v2.93h-5.04v11.28c0,1.89-.43,2.84-1.77,3.4-1.33.47-3.62.52-6.93.52-.13-.9-.52-2.28-1.03-3.19,2.63.09,4.95.09,5.68.04.73-.04.9-.17.9-.82v-11.24h-15.54v-2.33l-4.52,1.42v16.1h-2.93v-15.2l-7.15,2.2-.86-3.01c2.2-.6,5-1.38,8.01-2.28v-9.3h-3.96c-.52,2.37-1.16,4.56-1.94,6.33-.47-.39-1.72-1.12-2.37-1.42,1.59-3.62,2.41-9.09,2.93-14.3l2.8.47c-.22,1.98-.52,3.96-.82,5.9h3.36v-8.66h2.93v8.66h4.44v3.01h-4.44v8.44l5-1.51.39,2.54h14.68v-5.17h-16.28v-2.97h10.94v-5.47h-8.4v-2.93h8.4v-4.65h3.19v4.65h8.61v2.93h-8.61v5.47h10.59v2.97h-5.3ZM583.72,234.05c2.11,2.02,4.48,4.87,5.47,6.85l-2.58,1.64c-.9-1.98-3.23-4.91-5.3-7.02l2.41-1.46Z"/>
    <path class="cls-3" d="M646.16,234.95v3.06h-39.31v-3.06h4.31v-21.06h9.17v-5.25h3.01v5.25h6.29v-5.3h3.06v5.3h9.56v21.06h3.92ZM622.69,240.59c-3.32,2.8-8.61,5.73-13,7.49-.6-.65-1.72-1.72-2.41-2.33,4.44-1.64,9.77-4.56,12.36-6.98l3.06,1.81ZM614.25,216.87v7.19h6.07v-7.19h-6.07ZM614.25,234.95h6.07v-7.92h-6.07v7.92ZM623.34,216.87v7.19h6.29v-7.19h-6.29ZM629.63,227.03h-6.29v7.92h6.29v-7.92ZM632.77,238.7c4.56,2.2,9.52,4.95,12.53,7.02l-2.84,2.15c-2.76-2.02-7.45-4.82-11.93-7.1l2.24-2.07ZM632.68,216.87v7.19h6.37v-7.19h-6.37ZM632.68,234.95h6.37v-7.92h-6.37v7.92Z"/>
  </g>
  <g>
    <path class="cls-4" d="M332.73,337.86l14.9-19.24c.58-.77.97-1.5,1.18-2.16.14-.63.21-1.23.21-1.78,0-1.48-.45-2.76-1.34-3.86-.93-1.1-2.24-1.67-3.93-1.7-1.5,0-2.75.5-3.75,1.49-1.03.99-1.64,2.39-1.83,4.19h-5.44c.14-3.27,1.2-5.97,3.19-8.11,2-2.08,4.47-3.14,7.4-3.18,3.28.04,5.94,1.12,7.98,3.24,2.07,2.11,3.13,4.78,3.16,8.02,0,2.59-.77,4.9-2.3,6.91l-12.26,15.87h14.56v5.61h-21.73v-5.29Z"/>
    <path class="cls-4" d="M365.09,314.78c.03-3.63,1.16-6.42,3.37-8.38,2.07-1.94,4.55-2.91,7.43-2.91s5.48.97,7.56,2.91c2.11,1.96,3.2,4.76,3.27,8.39v17.34c-.07,3.61-1.16,6.4-3.27,8.36-2.07,1.94-4.59,2.93-7.56,2.97-2.88-.04-5.35-1.02-7.43-2.96-2.21-1.96-3.34-4.74-3.37-8.35v-17.38ZM381.27,315.13c-.11-3.95-1.9-5.95-5.38-6.03-3.5.07-5.29,2.08-5.36,6.03v16.7c.07,3.98,1.86,5.99,5.36,6.03,3.48-.04,5.28-2.04,5.38-6.03v-16.7Z"/>
    <path class="cls-4" d="M396.8,337.86l14.9-19.24c.58-.77.97-1.5,1.18-2.16.14-.63.21-1.23.21-1.78,0-1.48-.45-2.76-1.34-3.86-.93-1.1-2.24-1.67-3.93-1.7-1.5,0-2.75.5-3.75,1.49-1.03.99-1.64,2.39-1.83,4.19h-5.44c.14-3.27,1.2-5.97,3.19-8.11,2-2.08,4.47-3.14,7.4-3.18,3.28.04,5.94,1.12,7.98,3.24,2.07,2.11,3.13,4.78,3.16,8.02,0,2.59-.77,4.9-2.3,6.91l-12.26,15.87h14.56v5.61h-21.73v-5.29Z"/>
    <path class="cls-4" d="M427.79,332.01l12.73-28.19h6.07l-12.86,28.19h9.95v-11.33h5.44v11.33h3.06v5.28h-3.06v5.86h-5.44v-5.85h-15.88v-5.28Z"/>
    <path class="cls-4" d="M470.64,308.69h3.62l-11.09,34.73h-3.62l11.09-34.73Z"/>
    <path class="cls-4" d="M480.61,332.01l12.73-28.19h6.07l-12.86,28.19h9.95v-11.33h5.44v11.33h3.06v5.28h-3.06v5.86h-5.44v-5.85h-15.88v-5.28Z"/>
    <path class="cls-4" d="M523.45,308.69h3.62l-11.09,34.73h-3.62l11.09-34.73Z"/>
    <path class="cls-4" d="M542.15,320.41h1.88c1.87,0,3.32-.53,4.35-1.6,1.03-1.03,1.54-2.37,1.54-4.01-.03-1.66-.57-3.03-1.59-4.09-1.03-1.03-2.35-1.56-3.97-1.6-1.17,0-2.23.39-3.19,1.17-1.01.78-1.69,1.98-2.04,3.61h-5.47c.28-2.91,1.42-5.36,3.42-7.36,1.97-1.98,4.32-2.98,7.05-3.02,3.47.04,6.22,1.18,8.26,3.43,1.95,2.19,2.94,4.78,2.98,7.77,0,1.51-.27,2.97-.81,4.37-.63,1.4-1.75,2.65-3.37,3.75,1.65,1.08,2.85,2.37,3.59,3.88.7,1.51,1.05,3.09,1.05,4.75-.03,3.69-1.14,6.59-3.32,8.71-2.14,2.18-4.89,3.28-8.25,3.32-2.59,0-4.89-.86-6.89-2.58-2-1.72-3.3-4.22-3.89-7.48h5.46c.49,1.32,1.18,2.38,2.06,3.19.91.85,2.11,1.27,3.61,1.27,1.6,0,2.95-.57,4.05-1.7,1.11-1.06,1.69-2.58,1.72-4.54-.04-2-.61-3.55-1.72-4.65-1.1-1.06-2.49-1.59-4.18-1.59h-2.33v-4.96Z"/>
    <path class="cls-4" d="M566.83,314.78c.03-3.63,1.16-6.42,3.37-8.38,2.07-1.94,4.55-2.91,7.43-2.91s5.48.97,7.56,2.91c2.11,1.96,3.2,4.76,3.27,8.39v17.34c-.07,3.61-1.16,6.4-3.27,8.36-2.07,1.94-4.59,2.93-7.56,2.97-2.88-.04-5.35-1.02-7.43-2.96-2.21-1.96-3.34-4.74-3.37-8.35v-17.38ZM583.01,315.13c-.11-3.95-1.9-5.95-5.38-6.03-3.5.07-5.29,2.08-5.36,6.03v16.7c.07,3.98,1.86,5.99,5.36,6.03,3.48-.04,5.28-2.04,5.38-6.03v-16.7Z"/>
    <path class="cls-8" d="M611.75,323.03c0,.36-.03.97-.03,1.69,2.49-.11,5.01-.36,7.5-.75l-.03,2.02c-2.19.25-4.81.5-7.47.64v3.87c2.68-.11,5.2-.36,7.72-.75l-.03,2.08c-2.6.33-5.04.55-7.66.64.06,1.44.14,2.93.19,4.26,3.68,1,6.5,3.01,8.08,4.32l-1.27,1.96c-1.63-1.49-3.93-3.18-6.69-4.18.03.69.06,1.27.06,1.71,0,1.91-1.27,3.87-4.87,3.87-3.98,0-6.14-1.41-6.14-4.07,0-2.52,2.41-4.23,6.39-4.23.8,0,1.58.06,2.32.17-.03-1.24-.08-2.57-.11-3.76h-1.58c-1.88,0-4.92-.17-6.92-.39l-.03-2.07c1.99.33,5.15.53,6.97.53h1.49v-3.87h-1.22c-1.94,0-5.34-.28-7.08-.47l-.03-2.05c1.8.33,5.23.61,7.08.61h1.27v-1.96c0-.47-.06-1.27-.11-1.66h2.35c-.08.5-.14,1.05-.17,1.85ZM606.99,342.48c1.58,0,2.93-.5,2.93-2.41,0-.47-.03-1.13-.03-1.85-.86-.19-1.77-.28-2.68-.28-2.63,0-4.07,1.02-4.07,2.3s1.11,2.24,3.85,2.24Z"/>
    <path class="cls-8" d="M626.02,324.8c1.8-.19,7.03-.72,12.12-1.13,3.02-.25,5.62-.42,7.47-.5v2.21c-1.58,0-4.01.03-5.42.44-3.93,1.27-6.33,5.48-6.33,8.77,0,5.39,5.03,7.11,9.54,7.28l-.8,2.3c-5.12-.19-10.96-2.93-10.96-9.1,0-4.32,2.63-7.83,5.17-9.35-2.96.33-10.01,1-13,1.63l-.25-2.41c1.05-.03,1.94-.08,2.46-.14ZM643.9,332.63l-1.41.66c-.64-1.33-1.44-2.77-2.27-3.9l1.41-.61c.64.91,1.69,2.63,2.27,3.85ZM647.05,331.44l-1.44.69c-.66-1.36-1.47-2.71-2.32-3.87l1.36-.64c.66.91,1.77,2.6,2.41,3.82Z"/>
    <path class="cls-8" d="M654.46,324.19c-.53,2.54-1.38,7.5-1.38,10.6,0,1.36.08,2.52.25,3.87.47-1.25,1.13-2.91,1.6-4.04l1.16.88c-.72,1.96-1.72,4.9-1.96,6.2-.08.42-.17.94-.14,1.24.03.3.06.69.08.97l-1.99.14c-.55-1.96-1.02-5.15-1.02-8.88,0-4.07.91-8.8,1.25-11.09.11-.64.19-1.36.19-1.96l2.46.22c-.14.47-.39,1.36-.5,1.85ZM660.91,338.28c0,1.27.91,2.49,4.68,2.49,2.49,0,4.62-.22,6.86-.72l.06,2.32c-1.74.33-4.07.58-6.92.58-4.65,0-6.72-1.55-6.72-4.15,0-.94.17-1.91.47-3.26l1.99.19c-.28,1.02-.42,1.8-.42,2.54ZM671.61,324.44v2.24c-2.96.33-8.33.33-11.37,0v-2.21c3.02.5,8.6.39,11.37-.03Z"/>
    <path class="cls-8" d="M685.14,322.95c-.03.66-.08,1.74-.11,2.99,2.02-.25,4.12-.64,5.7-1.11l.06,2.16c-1.63.39-3.79.75-5.81.97-.03,1.3-.06,2.63-.06,3.73v.97c2.1-.66,4.26-1.02,6.09-1.02,4.04,0,6.94,2.19,6.94,5.51s-2.1,5.48-5.89,6.39c-1.24.28-2.46.33-3.43.39l-.77-2.24c1.02.03,2.21.03,3.24-.19,2.43-.47,4.65-1.77,4.65-4.32,0-2.35-2.13-3.62-4.76-3.62-2.08,0-4.04.39-6.03,1.08.06,2.35.11,4.81.11,6,0,2.57-.94,3.4-2.43,3.4-2.16,0-5.75-2.13-5.75-4.59,0-2.3,2.88-4.7,6.06-6.06v-1.58c0-1.11,0-2.41.03-3.62-.77.06-1.47.08-2.05.08-1.58,0-2.6-.03-3.54-.14l-.06-2.1c1.52.19,2.52.22,3.54.22.64,0,1.36-.03,2.13-.08,0-1.44.03-2.66.03-3.15,0-.55-.06-1.49-.14-1.96h2.46c-.08.5-.17,1.27-.19,1.91ZM682.04,341.68c.64,0,1.02-.44,1.02-1.36,0-1-.06-2.88-.08-4.9-2.27,1.05-3.96,2.66-3.96,3.9s1.94,2.35,3.02,2.35ZM700.25,328.15l-1.13,1.77c-1.36-1.3-4.43-3.21-6.2-4.15l1-1.66c1.96,1.05,4.98,2.93,6.33,4.04Z"/>
    <path class="cls-8" d="M725.7,323.64v15.49h-2.07v-1.44h-7.75v7.52h-2.1v-7.52h-7.5v1.58h-2.02v-15.63h9.52v-3.65h2.1v3.65h9.82ZM706.28,325.61v4.01h7.5v-4.01h-7.5ZM713.78,335.7v-4.18h-7.5v4.18h7.5ZM715.88,325.61v4.01h7.75v-4.01h-7.75ZM723.63,335.7v-4.18h-7.75v4.18h7.75Z"/>
    <path class="cls-8" d="M735.74,324.39c-.14,3.13-.33,9.66-.33,13.78,0,3.04,1.91,4.12,4.54,4.12,5.06,0,7.91-2.85,9.9-5.73l1.58,1.88c-1.91,2.63-5.48,6.11-11.56,6.11-3.98,0-6.72-1.66-6.72-6.17,0-4.09.28-11.09.28-14,0-1.02-.06-2.02-.22-2.82l2.79.03c-.14.91-.22,1.88-.25,2.79Z"/>
    <path class="cls-8" d="M759.42,339.66c1.3,2.02,3.71,2.96,6.89,3.1,3.02.11,9.16.03,12.39-.19-.22.5-.58,1.47-.66,2.1-3.02.11-8.69.17-11.73.05-3.6-.14-6.06-1.13-7.83-3.26-1.33,1.16-2.71,2.35-4.18,3.54l-1.11-2.08c1.27-.83,2.82-1.99,4.2-3.15v-7h-3.85v-1.94h5.86v8.82ZM758.56,326.3c-.86-1.33-2.9-3.15-4.7-4.37l1.52-1.25c1.77,1.16,3.85,2.93,4.81,4.26l-1.63,1.36ZM770.07,321.4c.66,8.44,2.82,14.97,8.35,17.82-.5.33-1.22,1.05-1.63,1.55-3.87-2.27-6.11-6.17-7.36-11.2-1.44,4.95-3.79,8.71-7.33,11.2-.33-.39-1.13-1.19-1.6-1.52,4.04-2.57,6.36-6.89,7.47-12.53l.89.14c-.19-1.13-.33-2.3-.47-3.51h-5.04v-1.94h6.72Z"/>
    <path class="cls-8" d="M787.92,322.95c1.47,0,5.09-.19,6.25-.28.53-.06,1.02-.17,1.38-.3l1.38,1.13c-.25.3-.5.58-.72.91-.77,1.24-1.99,4.07-3.15,6.64,2.79.3,5.37,1.19,7.61,2.21.11-.69.17-1.38.22-2.05.03-.83.06-1.77,0-2.54l2.24.25c-.08,1.96-.28,3.73-.58,5.34,1.33.75,2.46,1.49,3.35,2.13l-1.02,2.38c-.83-.72-1.8-1.47-2.88-2.19-1.13,3.6-3.26,6.22-7.28,8.22l-1.83-1.52c4.37-1.85,6.36-4.81,7.25-7.8-2.32-1.3-5.04-2.3-7.91-2.54-1.08,2.43-2.43,5.7-3.49,7.25-1,1.41-2.05,1.91-3.49,1.91-2.05,0-3.6-1.47-3.6-3.79,0-4.07,3.76-7.19,9.21-7.33.97-2.19,2.02-4.59,2.88-6.31-1.11.05-4.48.19-5.75.28-.61.03-1.38.11-2.05.17l-.11-2.24c.72.06,1.52.08,2.08.08ZM785.34,339.91c.64,0,1.08-.25,1.66-.97,1-1.3,2.05-3.87,3.02-6.03-4.04.3-6.33,2.74-6.33,5.12,0,1.22.77,1.88,1.66,1.88Z"/>
    <path class="cls-8" d="M821.14,344l-1.3-2.05c.89-.08,1.74-.22,2.38-.36,3.54-.8,7.03-3.43,7.03-8.22,0-4.18-2.68-7.64-7.39-8.02-.36,2.57-.89,5.39-1.66,7.97-1.69,5.7-3.87,8.6-6.45,8.6s-4.92-2.82-4.92-7.39c0-6,5.34-11.26,12.09-11.26s10.6,4.56,10.6,10.18-3.82,9.68-10.37,10.54ZM813.84,339.38c1.3,0,2.77-1.85,4.18-6.53.69-2.3,1.24-4.92,1.55-7.47-5.31.66-8.58,5.2-8.58,8.96,0,3.49,1.6,5.04,2.85,5.04Z"/>
    <path class="cls-8" d="M845.76,326.71c-.08,1.49-.19,3.02-.42,4.54h11.01s-.03.66-.06,1c-.55,7.88-1.11,10.93-2.19,12.03-.64.66-1.3.86-2.35.91-.97.06-2.77.03-4.62-.08-.06-.58-.33-1.44-.72-1.99,1.96.19,3.93.19,4.62.19.64,0,1.02-.03,1.3-.3.83-.72,1.36-3.43,1.83-9.82h-9.13c-.97,4.9-3.18,9.46-8.8,12.17-.3-.53-.94-1.27-1.47-1.69,7.64-3.43,8.44-10.6,8.77-16.96h-8.49v-1.96h11.15v-4.81h2.07v4.81h11.34v1.96h-13.86Z"/>
    <path class="cls-8" d="M867.73,324.19c-.53,2.54-1.38,7.5-1.38,10.6,0,1.36.08,2.52.25,3.87.47-1.25,1.13-2.91,1.6-4.04l1.16.88c-.72,1.96-1.72,4.9-1.96,6.2-.08.42-.17.94-.14,1.24.03.3.06.69.08.97l-1.99.14c-.55-1.96-1.02-5.15-1.02-8.88,0-4.07.91-8.8,1.25-11.09.11-.64.19-1.36.19-1.96l2.46.22c-.14.47-.39,1.36-.5,1.85ZM874.18,338.28c0,1.27.91,2.49,4.68,2.49,2.49,0,4.62-.22,6.86-.72l.06,2.32c-1.74.33-4.07.58-6.92.58-4.65,0-6.72-1.55-6.72-4.15,0-.94.17-1.91.47-3.26l1.99.19c-.28,1.02-.42,1.8-.42,2.54ZM884.88,324.44v2.24c-2.96.33-8.33.33-11.37,0v-2.21c3.02.5,8.6.39,11.37-.03Z"/>
  </g>
  <g>
    <path class="cls-8" d="M250.63,429.5c0,6,.78,18.77,14.06,26.66-.58.41-1.59,1.49-2.03,2.1-8.33-5.05-11.92-12.47-13.45-18.87-2.51,8.77-6.77,14.94-13.52,18.9-.47-.51-1.59-1.56-2.27-2,7.49-3.9,11.65-10.7,13.72-20.19l1.49.24c-.24-1.56-.37-3.05-.44-4.34h-8.33v-2.51h10.77Z"/>
    <path class="cls-8" d="M285.92,427.5c3.56,4.98,9.45,9.38,14.77,11.58-.58.61-1.19,1.49-1.63,2.24-5.22-2.54-11.14-7.05-14.29-11.42-2.74,4.07-8.23,8.71-13.99,11.55-.27-.58-.91-1.49-1.46-2,5.79-2.78,11.42-7.66,14.02-11.96h2.57ZM271.08,444.33h27.84v2.34h-15.89c-1.19,2.51-2.64,5.42-4,7.79,4.2-.14,8.98-.3,13.72-.51-1.39-1.59-2.98-3.25-4.47-4.57l2.13-1.15c3.12,2.68,6.4,6.33,7.96,8.84l-2.27,1.39c-.41-.68-.92-1.46-1.56-2.27-8.3.41-17.07.78-22.87.98l-.34-2.47c1.46-.03,3.15-.07,4.98-.14,1.29-2.34,2.74-5.42,3.66-7.89h-8.91v-2.34ZM292.87,437.9v2.3h-16.02v-2.3h16.02Z"/>
    <path class="cls-8" d="M321.96,455.04h13.25v2.24h-28.73v-2.24h12.87v-8.37h-11.35v-2.2h11.35v-4.54h-6.98v-1.93c-1.76,1.29-3.66,2.51-5.59,3.52-.27-.58-.98-1.46-1.52-1.96,5.83-2.95,11.38-7.93,14.02-12.16h2.51c3.59,4.84,9.45,9.38,14.7,11.72-.61.64-1.22,1.49-1.63,2.24-1.86-.95-3.79-2.17-5.66-3.52v2.1h-7.25v4.54h11.62v2.2h-11.62v8.37ZM312.85,447.59c1.39,1.86,2.74,4.37,3.22,6.06l-2.17.95c-.44-1.69-1.76-4.3-3.08-6.23l2.03-.78ZM329,437.7c-3.32-2.41-6.37-5.22-8.33-7.86-1.76,2.54-4.61,5.35-7.93,7.86h16.26ZM324.77,453.75c1.22-1.66,2.78-4.34,3.62-6.23l2.37.92c-1.25,2.13-2.85,4.57-4.13,6.17l-1.86-.85Z"/>
    <path class="cls-8" d="M341.42,450.68l14.39-18.58c.56-.75.94-1.44,1.14-2.09.13-.61.2-1.18.2-1.72,0-1.43-.43-2.67-1.29-3.73-.89-1.06-2.16-1.61-3.8-1.64-1.45,0-2.66.48-3.62,1.44-1,.96-1.59,2.31-1.77,4.05h-5.26c.13-3.16,1.16-5.76,3.08-7.83,1.94-2.01,4.32-3.03,7.15-3.07,3.17.04,5.73,1.08,7.7,3.13,2,2.03,3.02,4.61,3.06,7.74,0,2.5-.74,4.73-2.22,6.67l-11.84,15.33h14.06v5.42h-20.99v-5.1Z"/>
    <path class="cls-8" d="M369.47,428.39c.03-3.5,1.12-6.2,3.26-8.09,2-1.87,4.39-2.81,7.17-2.81s5.29.94,7.3,2.81c2.04,1.89,3.09,4.59,3.16,8.1v16.75c-.07,3.49-1.12,6.18-3.16,8.08-2,1.88-4.44,2.83-7.3,2.87-2.78-.04-5.17-.99-7.17-2.86-2.14-1.89-3.22-4.58-3.26-8.06v-16.78ZM385.09,428.73c-.1-3.81-1.83-5.75-5.2-5.82-3.38.07-5.11,2.01-5.17,5.82v16.13c.07,3.85,1.79,5.79,5.17,5.82,3.36-.03,5.1-1.97,5.2-5.82v-16.13Z"/>
    <path class="cls-8" d="M398.82,450.37h5.26v5.42l-5.26,3.96v-9.38Z"/>
    <path class="cls-8" d="M412.13,428.39c.03-3.5,1.12-6.2,3.26-8.09,2-1.87,4.39-2.81,7.17-2.81s5.29.94,7.3,2.81c2.04,1.89,3.09,4.59,3.16,8.1v16.75c-.07,3.49-1.12,6.18-3.16,8.08-2,1.88-4.44,2.83-7.3,2.87-2.78-.04-5.17-.99-7.17-2.86-2.14-1.89-3.22-4.58-3.26-8.06v-16.78ZM427.76,428.73c-.1-3.81-1.83-5.75-5.2-5.82-3.38.07-5.11,2.01-5.17,5.82v16.13c.07,3.85,1.79,5.79,5.17,5.82,3.36-.03,5.1-1.97,5.2-5.82v-16.13Z"/>
    <path class="cls-8" d="M439.87,428.39c.03-3.5,1.12-6.2,3.26-8.09,2-1.87,4.39-2.81,7.17-2.81s5.29.94,7.3,2.81c2.04,1.89,3.09,4.59,3.16,8.1v16.75c-.07,3.49-1.12,6.18-3.16,8.08-2,1.88-4.44,2.83-7.3,2.87-2.78-.04-5.17-.99-7.17-2.86-2.14-1.89-3.22-4.58-3.26-8.06v-16.78ZM455.49,428.73c-.1-3.81-1.83-5.75-5.2-5.82-3.38.07-5.11,2.01-5.17,5.82v16.13c.07,3.85,1.79,5.79,5.17,5.82,3.36-.03,5.1-1.97,5.2-5.82v-16.13Z"/>
    <path class="cls-8" d="M467.6,428.39c.03-3.5,1.12-6.2,3.26-8.09,2-1.87,4.39-2.81,7.17-2.81s5.29.94,7.3,2.81c2.04,1.89,3.09,4.59,3.16,8.1v16.75c-.07,3.49-1.12,6.18-3.16,8.08-2,1.88-4.44,2.83-7.3,2.87-2.78-.04-5.17-.99-7.17-2.86-2.14-1.89-3.22-4.58-3.26-8.06v-16.78ZM483.23,428.73c-.1-3.81-1.83-5.75-5.2-5.82-3.38.07-5.11,2.01-5.17,5.82v16.13c.07,3.85,1.79,5.79,5.17,5.82,3.36-.03,5.1-1.97,5.2-5.82v-16.13Z"/>
    <path class="cls-8" d="M522.78,455.04c0,1.55-.39,2.32-1.48,2.74-1.06.39-2.87.42-5.73.42-.13-.64-.55-1.74-.9-2.38,2.19.1,4.28.06,4.89.03.58,0,.81-.19.81-.81v-9.85h-21.57v13.07h-2.38v-27.21h26.37v23.99ZM498.79,442.81h9.43v-9.43h-9.43v9.43ZM520.37,442.81v-9.43h-9.79v9.43h9.79Z"/>
  </g>
  <g>
    <path class="cls-8" d="M286.47,577.42l1.29-1.69c1.21,1.26,2.78,2.36,5.11,2.36s4.19-1.46,4.19-3.85-1.66-4.1-6.4-4.1v-1.97c4.24,0,5.7-1.71,5.7-3.93,0-1.97-1.35-3.26-3.48-3.26-1.66,0-3.12.81-4.27,1.99l-1.38-1.63c1.54-1.43,3.37-2.47,5.76-2.47,3.46,0,5.98,1.91,5.98,5.17,0,2.5-1.49,4.16-3.65,4.97v.11c2.42.56,4.35,2.42,4.35,5.23,0,3.68-2.95,5.87-6.6,5.87-3.23,0-5.25-1.35-6.6-2.81Z"/>
    <path class="cls-8" d="M302.62,569.5c0-7.16,2.5-10.62,6.43-10.62s6.4,3.48,6.4,10.62-2.5,10.73-6.4,10.73-6.43-3.57-6.43-10.73ZM312.96,569.5c0-6.01-1.57-8.57-3.9-8.57s-3.93,2.56-3.93,8.57,1.57,8.68,3.93,8.68,3.9-2.61,3.9-8.68Z"/>
    <path class="cls-8" d="M328.19,557.56c-2.02,4.72-5.28,8.91-8.82,11.55-.37-.45-1.26-1.24-1.77-1.6,3.54-2.39,6.66-6.26,8.4-10.56l2.19.62ZM339.59,566.92s-.03.73-.06,1.01c-.39,8.62-.81,11.85-1.77,12.92-.59.7-1.18.87-2.16.98-.93.08-2.67.03-4.41-.06-.06-.62-.31-1.46-.7-2.08,1.83.17,3.57.2,4.21.2.59,0,.93-.06,1.18-.37.73-.7,1.12-3.51,1.46-10.59h-7.25c-.73,5.53-2.53,10.62-9.66,13.2-.28-.53-.87-1.38-1.35-1.83,6.6-2.19,8.15-6.63,8.79-11.38h-5.73v-2.02h17.44ZM335.69,556.89c1.83,3.76,5.42,7.98,8.46,10.11-.53.45-1.32,1.26-1.71,1.85-3.09-2.5-6.63-7.02-8.71-11.18l1.97-.79Z"/>
    <path class="cls-8" d="M359.46,580.74l-1.32-2.08c.9-.08,1.77-.22,2.42-.37,3.6-.81,7.14-3.48,7.14-8.34,0-4.24-2.73-7.75-7.5-8.15-.37,2.61-.9,5.48-1.69,8.09-1.71,5.79-3.93,8.74-6.55,8.74s-5-2.87-5-7.5c0-6.1,5.42-11.43,12.28-11.43s10.76,4.63,10.76,10.34-3.88,9.83-10.53,10.7ZM352.04,576.05c1.32,0,2.81-1.88,4.24-6.63.7-2.33,1.26-5,1.57-7.58-5.39.67-8.71,5.28-8.71,9.1,0,3.54,1.63,5.11,2.89,5.11Z"/>
    <path class="cls-8" d="M380.67,557.03c-.62,1.85-1.38,3.71-2.25,5.45v19.55h-1.99v-15.96c-.87,1.38-1.77,2.64-2.72,3.71-.17-.45-.73-1.6-1.1-2.11,2.5-2.72,4.75-6.94,6.15-11.18l1.91.53ZM397.95,558.07v23.68h-1.99v-1.43h-12.36v1.66h-1.94v-23.91h16.29ZM395.95,578.46v-18.57h-12.36v18.57h12.36ZM390.67,565.57v3.09h3.23v7.47h-8.01v-7.47h3.06v-3.09h-4.21v-1.6h4.21v-3.17h1.71v3.17h4.33v1.6h-4.33ZM392.25,570.23h-4.75v4.35h4.75v-4.35Z"/>
    <path class="cls-8" d="M414.11,569.78s-.03.65-.03.9c-.34,7-.62,9.55-1.38,10.42-.48.56-.96.73-1.8.79-.7.08-2.08.06-3.43,0-.06-.56-.25-1.35-.59-1.83,1.38.14,2.7.14,3.2.14.48,0,.7-.06.96-.31.51-.56.79-2.7,1.04-8.23h-4.61c-.62,4.07-1.94,7.95-4.89,10.39-.28-.45-.93-1.12-1.43-1.43,3.82-3.03,4.49-8.76,4.78-13.85h-3.06v-9.13h11.04v9.13h-5.96c-.06.98-.14,1.99-.25,3.01h6.41ZM404.81,564.92h7.14v-5.39h-7.14v5.39ZM418.8,575.17h-2.02v-15.45h2.02v15.45ZM425.68,556.91v22.33c0,1.4-.39,2.05-1.26,2.42-.93.34-2.5.37-5.06.37-.11-.56-.42-1.52-.76-2.11,1.97.08,3.74.06,4.27.03.51,0,.73-.17.73-.7v-22.33h2.08Z"/>
    <path class="cls-8" d="M432.99,577.59v-16.07c0-.73-.14-1.99-.25-2.56h2.78c-.11.7-.2,1.74-.2,2.56v15.93c5.37-1.35,11.88-5.06,15.37-9.58l1.26,1.97c-3.65,4.52-9.44,8.01-16.43,10.03-.31.08-.73.22-1.18.51l-1.63-1.4c.2-.45.28-.81.28-1.38Z"/>
    <path class="cls-8" d="M459.48,571.44l-2.14.79c-.42-1.46-1.94-5.34-2.5-6.32l2.08-.81c.56,1.21,2.02,4.89,2.56,6.35ZM473.19,566.66c-.76,3.09-1.97,6.1-3.99,8.62-2.58,3.31-6.01,5.48-9.16,6.69l-1.85-1.88c3.26-.96,6.83-3.09,9.13-5.98,1.99-2.44,3.46-6.01,3.88-9.61l2.42.76c-.2.59-.31,1.04-.42,1.4ZM465.66,569.75l-2.08.73c-.31-1.26-1.6-4.83-2.19-6.1l2.05-.7c.48,1.12,1.85,4.83,2.22,6.07Z"/>
    <path class="cls-8" d="M495.44,562.31c-.96,2.42-2.73,5.7-4.72,8.23,2.95,2.53,6.38,6.18,8.2,8.4l-1.97,1.69c-1.88-2.47-4.86-5.79-7.73-8.34-3.01,3.23-6.8,6.32-10.96,8.2l-1.8-1.88c4.52-1.77,8.68-5.11,11.57-8.34,1.91-2.16,3.96-5.48,4.66-7.81h-10.96c-.98,0-2.53.11-2.84.14v-2.56c.39.06,1.99.17,2.84.17h10.84c.93,0,1.66-.08,2.11-.22l1.43,1.1c-.17.22-.53.84-.7,1.24Z"/>
    <path class="cls-8" d="M513.96,573.99c4.33-2.73,7.75-6.88,9.38-10.34l1.35,2.39c-1.91,3.51-5.2,7.33-9.44,10-2.81,1.77-6.35,3.48-11.04,4.35l-1.49-2.3c4.92-.73,8.57-2.44,11.24-4.1ZM512.3,565.09l-1.77,1.77c-1.4-1.46-4.92-4.47-7-5.87l1.6-1.71c1.99,1.32,5.59,4.24,7.16,5.81Z"/>
    <path class="cls-8" d="M530.79,562.56c-.81.93-1.69,1.8-2.53,2.5-.39-.39-1.21-1.1-1.71-1.38,2.42-1.77,4.66-4.49,5.98-7.33l1.99.59c-.42.9-.93,1.8-1.49,2.64h17.73v1.85h-2.89v4.75h3.93v1.85h-3.93v4.8h3.54v1.88h-24.07v-1.88h3.46v-4.8h-3.9v-1.85h3.9v-3.62ZM526.69,581.21c1.46-1.15,2.78-3.29,3.48-5.31l1.94.48c-.67,2.11-1.94,4.33-3.46,5.65l-1.97-.81ZM532.67,566.18h3.12v-4.75h-3.12v4.75ZM532.67,572.84h3.12v-4.8h-3.12v4.8ZM536.94,576.41c.34,1.66.65,3.79.67,5.06l-1.99.28c-.03-1.29-.25-3.46-.59-5.14l1.91-.2ZM540.82,566.18v-4.75h-3.26v4.75h3.26ZM537.56,568.04v4.8h3.26v-4.8h-3.26ZM542.64,576.27c.76,1.6,1.52,3.76,1.8,5.08l-2.02.42c-.28-1.32-1.01-3.48-1.71-5.14l1.94-.37ZM545.9,561.44h-3.29v4.75h3.29v-4.75ZM545.9,568.04h-3.29v4.8h3.29v-4.8ZM548.32,575.79c1.4,1.69,3.06,3.99,3.82,5.51l-2.08.76c-.67-1.49-2.28-3.88-3.65-5.62l1.91-.65Z"/>
    <path class="cls-8" d="M561.25,568.09c.79.87,3.6,4.58,4.21,5.53l-1.38,1.63c-.51-1.04-1.83-3.2-2.84-4.78v11.52h-1.94v-11.55c-1.04,3.01-2.47,6.12-3.88,8.01-.22-.59-.73-1.52-1.07-2.02,1.63-1.97,3.4-5.59,4.38-8.74h-3.93v-1.97h4.49v-9.27h1.94v9.27h4.58v1.97h-4.58v.39ZM556.53,564.75c-.14-1.69-.79-4.27-1.52-6.24l1.52-.37c.81,1.94,1.46,4.47,1.66,6.15l-1.66.45ZM565.82,558.49c-.67,2.11-1.54,4.75-2.3,6.32l-1.35-.45c.65-1.66,1.43-4.44,1.85-6.32l1.8.45ZM576.78,574.11v7.89h-1.97v-7.53l-8.71,1.57-.34-1.94,9.05-1.6v-16.12h1.97v15.76l3.31-.59.31,1.91-3.62.65ZM571.1,570.17c-.98-1.04-2.98-2.47-4.66-3.37l.98-1.46c1.66.87,3.74,2.14,4.72,3.15l-1.04,1.69ZM572.29,563.38c-.9-1.07-2.81-2.58-4.41-3.62l1.07-1.4c1.57.96,3.51,2.39,4.41,3.43l-1.07,1.6Z"/>
  </g>
  <g>
    <path class="cls-8" d="M649.79,550.46c-1.06,3.83-2.93,6.79-5.35,9.02,2.44,1.63,5.4,2.74,8.91,3.4-.46.41-1.03,1.25-1.28,1.79-3.67-.73-6.68-2.04-9.18-3.88-2.42,1.82-5.19,3.07-8.18,3.91-.24-.52-.71-1.3-1.14-1.68,2.8-.71,5.43-1.87,7.71-3.53-1.93-1.74-3.48-3.94-4.64-6.46-1.19,3.99-3.18,8.04-6.41,10.81-.41-.52-1.11-1-1.74-1.39,4.89-3.91,6.79-10.86,7.55-16.08h-6.65v-1.96h6.9c.24-2.15.3-3.8.3-4.54h2.09c-.05.84-.11,2.47-.35,4.54h14.34v1.96h-14.58c-.16,1.11-.35,2.34-.65,3.59h10.65l.33-.11,1.39.62ZM638.08,551.87c1.09,2.5,2.66,4.64,4.73,6.38,1.85-1.71,3.37-3.8,4.32-6.38h-9.04Z"/>
    <path class="cls-8" d="M661.27,559.23c1.28,2.01,3.67,2.93,6.84,3.04,2.99.14,9.23.05,12.49-.16-.24.46-.57,1.39-.65,1.98-3.04.14-8.77.19-11.81.05-3.56-.14-6-1.09-7.69-3.21-1.2,1.17-2.44,2.31-3.78,3.48l-1.06-1.93c1.14-.84,2.53-1.98,3.75-3.12v-6.95h-3.45v-1.9h5.35v8.72ZM660.46,546.22c-.81-1.36-2.63-3.23-4.29-4.54l1.55-1.14c1.66,1.25,3.53,3.1,4.37,4.43l-1.63,1.25ZM667.25,547.03h-4.7v-1.55h7.69v-2.04h-5.89v-1.52h5.89v-2.06h2.01v2.06h6.11v1.52h-6.11v2.04h7.99v1.55h-4.81l1.17.33c-.52.95-1,1.9-1.47,2.61h4.73v1.55h-7.6v1.82h6.52v1.49h-6.52v2.01h7.77v1.58h-7.77v2.55h-2.01v-2.55h-7.42v-1.58h7.42v-2.01h-6.06v-1.49h6.06v-1.82h-7.09v-1.55h4.05c-.19-.76-.68-1.82-1.2-2.63l1.25-.3ZM673.36,549.75c.41-.79.9-1.9,1.2-2.72h-6.76c.6.84,1.09,1.9,1.28,2.69l-.95.24h6l-.76-.22Z"/>
    <path class="cls-8" d="M686.02,555.59c-.38,2.55-1.03,5.16-1.93,6.9-.33-.24-1.14-.62-1.58-.76.9-1.66,1.47-4.07,1.77-6.46l1.74.33ZM690.58,548.64c1.11,1.74,2.2,4.07,2.55,5.54l-1.52.68c-.11-.46-.27-1-.49-1.58l-2.15.14v11.3h-1.79v-11.19c-1.55.08-3.02.16-4.26.24l-.16-1.79,1.79-.08c.57-.73,1.2-1.6,1.79-2.5-.84-1.19-2.25-2.72-3.5-3.83l1.03-1.33c.27.22.52.46.79.71.92-1.52,1.87-3.56,2.44-5.05l1.77.71c-.92,1.79-2.06,3.94-3.07,5.46.6.6,1.14,1.22,1.58,1.77,1.06-1.68,2.04-3.42,2.74-4.86l1.71.76c-1.55,2.58-3.61,5.76-5.41,8.09l4.02-.16c-.38-.84-.81-1.71-1.28-2.44l1.41-.57ZM691.34,555.07c.73,1.55,1.47,3.61,1.74,4.94l-1.55.52c-.27-1.36-.95-3.4-1.66-4.97l1.47-.49ZM707.07,541.27s0,.54-.03.84c-.22,5.76-.43,7.88-1.09,8.66-.43.52-.92.68-1.68.73-.62.08-1.82.05-3.07.03-.05-.57-.27-1.36-.6-1.87,1.22.11,2.39.11,2.85.11.43,0,.65-.03.87-.24.38-.46.62-2.12.81-6.41h-5.21c-.57,4.02-1.96,7.22-6.19,9.1-.22-.46-.76-1.14-1.19-1.49,3.75-1.55,4.92-4.29,5.4-7.6h-4.4v-1.85h13.53ZM694.57,553.52h11.98v11.03h-1.96v-1.3h-8.18v1.41h-1.85v-11.14ZM696.42,555.32v6.14h8.18v-6.14h-8.18Z"/>
    <path class="cls-8" d="M711.22,552.19c-.22-.49-.79-1.2-1.25-1.63,4.78-2.47,9.18-6.87,11.22-10.7h2.09c2.77,4.43,7.47,8.39,11.79,10.35-.52.52-1.01,1.19-1.33,1.79-4.32-2.28-8.96-6.27-11.38-10.1-2.12,3.64-6.49,7.74-11.14,10.29ZM718.61,549.48v3.78c0,3.83-.6,8.26-6,11.43-.33-.43-1.09-1.11-1.6-1.44,5.08-2.85,5.54-6.71,5.54-10.02v-3.75h2.06ZM728.25,549.37v15.26h-2.09v-15.26h2.09Z"/>
    <path class="cls-8" d="M739.66,544.59c1.77-.19,6.9-.71,11.9-1.11,2.96-.24,5.51-.41,7.33-.49v2.17c-1.55,0-3.94.03-5.32.43-3.86,1.25-6.22,5.38-6.22,8.61,0,5.3,4.94,6.98,9.37,7.14l-.79,2.25c-5.02-.19-10.76-2.88-10.76-8.94,0-4.24,2.58-7.69,5.08-9.18-2.91.33-9.83.98-12.77,1.6l-.24-2.36c1.03-.03,1.9-.08,2.42-.14ZM757.2,552.27l-1.39.65c-.62-1.3-1.41-2.72-2.23-3.83l1.38-.6c.62.9,1.66,2.58,2.23,3.77ZM760.3,551.11l-1.41.68c-.65-1.33-1.44-2.66-2.28-3.8l1.33-.62c.65.9,1.74,2.55,2.36,3.75Z"/>
    <path class="cls-8" d="M767.98,542.66h2.8l6.76,19.94h-2.66l-1.9-6.08h-7.28l-1.93,6.08h-2.55l6.76-19.94ZM766.33,554.5h6.03l-.95-3.04c-.73-2.25-1.36-4.43-2.01-6.74h-.11c-.62,2.34-1.28,4.48-1.98,6.74l-.98,3.04Z"/>
    <path class="cls-8" d="M780.13,547.85h2.04l.22,2.15h.08c1.28-1.41,2.82-2.53,4.59-2.53,2.25,0,3.48,1.09,4.07,2.82,1.52-1.66,3.07-2.82,4.86-2.82,3.04,0,4.48,2.01,4.48,5.79v9.34h-2.47v-9.02c0-2.77-.87-3.94-2.74-3.94-1.14,0-2.34.73-3.72,2.25v10.7h-2.47v-9.02c0-2.77-.87-3.94-2.74-3.94-1.11,0-2.36.73-3.72,2.25v10.7h-2.47v-14.75Z"/>
    <path class="cls-8" d="M804.35,558.77c0-3.21,2.8-4.81,9.07-5.51,0-1.9-.62-3.72-3.04-3.72-1.71,0-3.26.79-4.43,1.58l-.98-1.71c1.36-.87,3.45-1.93,5.81-1.93,3.59,0,5.11,2.42,5.11,6.06v9.07h-2.04l-.22-1.77h-.08c-1.41,1.17-3.07,2.12-4.89,2.12-2.47,0-4.32-1.52-4.32-4.18ZM813.42,559.01v-4.13c-4.97.6-6.65,1.82-6.65,3.72,0,1.68,1.14,2.36,2.61,2.36s2.61-.68,4.05-1.96Z"/>
    <path class="cls-8" d="M819.04,561.26l7.77-11.41h-6.93v-2.01h10.05v1.33l-7.77,11.41h8.04v2.01h-11.16v-1.33Z"/>
    <path class="cls-8" d="M832.05,555.24c0-4.92,3.23-7.77,6.84-7.77s6.84,2.85,6.84,7.77-3.23,7.71-6.84,7.71-6.84-2.82-6.84-7.71ZM843.19,555.24c0-3.4-1.74-5.7-4.29-5.7s-4.26,2.31-4.26,5.7,1.71,5.65,4.26,5.65,4.29-2.25,4.29-5.65Z"/>
    <path class="cls-8" d="M849.63,547.85h2.04l.22,2.12h.08c1.41-1.38,2.93-2.5,4.94-2.5,3.1,0,4.51,2.01,4.51,5.79v9.34h-2.47v-9.02c0-2.77-.84-3.94-2.8-3.94-1.52,0-2.55.76-4.05,2.25v10.7h-2.47v-14.75Z"/>
    <path class="cls-8" d="M872.93,542.01l2.42-.41c.05.49.16,1.28.27,1.87.03.3.24,1.39.54,2.93,2.63-.43,5.13-.87,6.27-1.09.79-.14,1.49-.3,1.96-.43l.43,2.28c-.41.03-1.22.16-1.96.27-1.22.19-3.72.57-6.3,1,.33,1.68.71,3.59,1.06,5.43,2.74-.46,5.35-.9,6.71-1.14,1.03-.22,1.82-.38,2.39-.54l.46,2.28c-.57.05-1.44.22-2.44.38-1.49.22-4.05.62-6.71,1.06.54,2.66.98,4.83,1.11,5.46.19.76.41,1.68.68,2.47l-2.5.46c-.14-.92-.22-1.77-.41-2.55-.11-.6-.52-2.8-1.03-5.49-3.1.52-6,.98-7.31,1.22-1.06.19-1.82.35-2.42.52l-.49-2.39c.65-.03,1.68-.14,2.39-.24,1.36-.19,4.32-.65,7.42-1.14-.35-1.85-.73-3.78-1.06-5.46-2.58.41-4.94.79-6,.98-.73.14-1.39.27-2.17.46l-.49-2.42c.68-.05,1.41-.11,2.28-.19,1.06-.11,3.42-.46,5.98-.87-.3-1.47-.52-2.55-.6-2.88-.14-.68-.3-1.28-.49-1.85ZM885.91,544.26l-1.47.65c-.54-1.11-1.47-2.74-2.2-3.78l1.44-.6c.68.95,1.66,2.61,2.23,3.72ZM888.95,543.15l-1.47.65c-.6-1.2-1.49-2.72-2.25-3.75l1.44-.6c.71.98,1.77,2.69,2.28,3.69Z"/>
    <path class="cls-8" d="M910.06,545.89c-.57,2.85-1.9,7.22-4.05,10.02-2.47,3.18-5.7,5.7-10.7,7.28l-1.85-2.04c5.27-1.33,8.31-3.64,10.59-6.55,1.93-2.47,3.18-6.25,3.56-8.85h-13.88c-1.09,0-2.01.05-2.72.08v-2.39c.76.08,1.82.16,2.72.16h13.63c.41,0,.92,0,1.44-.14l1.66,1.06c-.19.38-.3.84-.41,1.36Z"/>
    <path class="cls-8" d="M916.87,544.4c0-.76-.05-1.98-.22-2.82h2.66c-.08.84-.19,2.01-.19,2.82v4.43c3.59,1.09,8.75,3.04,11.6,4.48l-.92,2.31c-2.96-1.6-7.66-3.42-10.67-4.37.03,4.07.03,8.18.03,8.96,0,.84.05,2.31.16,3.21h-2.63c.14-.87.19-2.2.19-3.21v-15.81Z"/>
    <path class="cls-8" d="M952.97,551.68c1.66,1.87,3.64,3.37,5.84,4.32-.46.38-1.09,1.14-1.33,1.66-1.49-.71-2.88-1.66-4.13-2.8,0,.19-.03.46-.05.62-.35,5.43-.76,7.58-1.49,8.37-.49.52-.98.71-1.82.76-.71.05-2.15.05-3.61-.03-.05-.57-.27-1.39-.62-1.87,1.44.14,2.85.14,3.37.14.49,0,.73-.03,1-.27.49-.49.79-2.12,1.09-6.14h-5.57c-.76,3.99-2.66,6.76-8.34,8.28-.19-.46-.76-1.3-1.14-1.68,5.08-1.17,6.71-3.45,7.39-6.6h-4.64v-1.3c-1.17.98-2.47,1.87-3.94,2.61-.27-.43-.84-1.19-1.28-1.58,2.39-1.17,4.32-2.69,5.87-4.48h-5.32v-1.87h6.76c.65-.98,1.25-2.01,1.74-3.07h-6.76v-1.79h3.99c-.46-1.14-1.38-2.74-2.31-3.91l1.71-.62c1,1.22,2.06,2.93,2.5,4.05l-1.14.49h2.77c.62-1.63,1.09-3.34,1.44-5.11l2.06.38c-.38,1.63-.81,3.21-1.36,4.73h5.32l-.98-.38c.87-1.14,1.98-2.96,2.55-4.26l1.98.68c-.81,1.41-1.79,2.88-2.63,3.97h4.81v1.79h-6.87c.49,1.06,1.06,2.09,1.71,3.07h6.74v1.87h-5.3ZM953.1,554.61c-.95-.87-1.79-1.87-2.55-2.93h-8.42c-.79,1.06-1.66,2.04-2.63,2.93h13.61ZM944.93,546.73c-.46,1.06-.98,2.09-1.58,3.07h5.98c-.57-.98-1.06-2.01-1.49-3.07h-2.91Z"/>
    <path class="cls-8" d="M732.91,594.18h4.58v-15.37h-3.65v-1.63c1.83-.34,3.15-.81,4.27-1.49h1.97v18.48h4.13v2.13h-11.29v-2.13Z"/>
    <path class="cls-8" d="M747.52,600.13c1.77-.79,2.81-2.16,2.81-3.82-.11.03-.2.03-.31.03-.98,0-1.88-.62-1.88-1.8,0-1.1.9-1.8,1.94-1.8,1.35,0,2.16,1.15,2.16,3.03,0,2.7-1.57,4.8-4.1,5.87l-.62-1.52Z"/>
    <path class="cls-8" d="M755.22,585.95c0-7.16,2.5-10.62,6.43-10.62s6.4,3.48,6.4,10.62-2.5,10.73-6.4,10.73-6.43-3.57-6.43-10.73ZM765.55,585.95c0-6.01-1.57-8.57-3.9-8.57s-3.93,2.56-3.93,8.57,1.57,8.68,3.93,8.68,3.9-2.61,3.9-8.68Z"/>
    <path class="cls-8" d="M770.81,585.95c0-7.16,2.5-10.62,6.43-10.62s6.4,3.48,6.4,10.62-2.5,10.73-6.4,10.73-6.43-3.57-6.43-10.73ZM781.15,585.95c0-6.01-1.57-8.57-3.9-8.57s-3.93,2.56-3.93,8.57,1.57,8.68,3.93,8.68,3.9-2.61,3.9-8.68Z"/>
    <path class="cls-8" d="M786.4,585.95c0-7.16,2.5-10.62,6.43-10.62s6.4,3.48,6.4,10.62-2.5,10.73-6.4,10.73-6.43-3.57-6.43-10.73ZM796.74,585.95c0-6.01-1.57-8.57-3.9-8.57s-3.93,2.56-3.93,8.57,1.57,8.68,3.93,8.68,3.9-2.61,3.9-8.68Z"/>
    <path class="cls-8" d="M826.27,595.66c0,1.35-.34,2.02-1.29,2.39-.93.34-2.5.37-5,.37-.11-.56-.48-1.52-.79-2.08,1.91.08,3.74.06,4.27.03.51,0,.7-.17.7-.7v-8.6h-18.82v11.41h-2.08v-23.74h23.01v20.93ZM805.34,584.99h8.23v-8.23h-8.23v8.23ZM824.16,584.99v-8.23h-8.54v8.23h8.54Z"/>
    <path class="cls-8" d="M840.06,574.01c-2.02,4.72-5.28,8.91-8.82,11.55-.37-.45-1.26-1.24-1.77-1.6,3.54-2.39,6.66-6.26,8.4-10.56l2.19.62ZM851.47,583.36s-.03.73-.06,1.01c-.39,8.62-.81,11.85-1.77,12.92-.59.7-1.18.87-2.16.98-.93.08-2.67.03-4.41-.06-.06-.62-.31-1.46-.7-2.08,1.83.17,3.57.2,4.21.2.59,0,.93-.06,1.18-.37.73-.7,1.12-3.51,1.46-10.59h-7.25c-.73,5.53-2.53,10.62-9.66,13.2-.28-.53-.87-1.38-1.35-1.83,6.6-2.19,8.15-6.63,8.79-11.38h-5.73v-2.02h17.44ZM847.56,573.33c1.83,3.76,5.42,7.98,8.46,10.11-.53.45-1.32,1.26-1.71,1.85-3.09-2.5-6.63-7.02-8.71-11.18l1.97-.79Z"/>
  </g>
  <g>
    <path class="cls-3" d="M365.45,181.01c-2.26,0-4.33-.17-6.22-.51s-3.58-.73-5.08-1.16c-1.5-.43-2.78-.84-3.86-1.22-1.08-.38-1.92-.6-2.53-.65l.65-14.03h5.25l1.6,9.43c.43.48,1,.94,1.71,1.37.71.43,1.52.81,2.43,1.12s1.9.56,2.97.74c1.06.18,2.17.27,3.31.27,3.83,0,6.65-.84,8.46-2.53,1.81-1.69,2.72-4,2.72-6.94,0-1.55-.3-2.9-.89-4.07-.6-1.17-1.46-2.23-2.59-3.19-1.13-.96-2.49-1.87-4.09-2.72-1.6-.85-3.38-1.73-5.36-2.64-1.57-.71-3.25-1.56-5.04-2.55-1.79-.99-3.44-2.2-4.96-3.63-1.52-1.43-2.79-3.1-3.8-5-1.01-1.9-1.52-4.12-1.52-6.66,0-2.18.45-4.18,1.35-5.99.9-1.81,2.17-3.38,3.8-4.7,1.64-1.32,3.6-2.34,5.89-3.06,2.29-.72,4.85-1.08,7.66-1.08,1.75,0,3.41.13,4.98.38,1.57.25,3.01.54,4.32.86,1.31.32,2.45.63,3.44.95.99.32,1.77.53,2.36.63l-.49,12.89h-5.06l-1.86-8.94c-.23-.25-.6-.51-1.12-.78-.52-.27-1.13-.5-1.83-.7-.7-.2-1.48-.37-2.34-.51-.86-.14-1.75-.21-2.66-.21-3.47,0-6.02.67-7.62,2.02-1.61,1.34-2.42,3.38-2.42,6.12,0,1.47.29,2.76.86,3.86.57,1.1,1.4,2.12,2.49,3.04,1.09.93,2.45,1.83,4.07,2.72,1.62.89,3.47,1.85,5.55,2.89,1.88.94,3.77,1.95,5.69,3.02,1.91,1.08,3.64,2.3,5.17,3.67,1.53,1.37,2.79,2.94,3.77,4.7.98,1.76,1.46,3.81,1.46,6.14,0,2-.44,4-1.33,5.99-.89,1.99-2.19,3.78-3.92,5.36s-3.87,2.87-6.45,3.84c-2.57.98-5.55,1.46-8.92,1.46Z"/>
    <path class="cls-3" d="M391.77,194.89l5.82-.87v-50.35l-5.36-1.67v-4.56l10.91-1.56h.19l1.75,1.52v4.22c.66-.68,1.42-1.38,2.28-2.09.86-.71,1.84-1.34,2.93-1.9,1.09-.56,2.29-1.01,3.61-1.37,1.32-.35,2.75-.53,4.3-.53,2.21,0,4.33.41,6.37,1.22,2.04.81,3.85,2.07,5.44,3.78,1.58,1.71,2.85,3.91,3.78,6.6.94,2.69,1.41,5.91,1.41,9.66,0,3.32-.51,6.45-1.54,9.37s-2.5,5.48-4.41,7.64c-1.91,2.17-4.23,3.88-6.94,5.13s-5.74,1.88-9.09,1.88c-.61,0-1.25-.03-1.92-.08-.67-.05-1.34-.11-2-.19-.66-.08-1.29-.17-1.88-.27-.6-.1-1.12-.22-1.58-.34l.23,6.46v7.42l7.8.87v4.11h-22.09v-4.11ZM414.63,141.53c-.99,0-1.91.11-2.78.34s-1.65.51-2.38.86c-.72.34-1.37.73-1.94,1.16-.57.43-1.06.85-1.46,1.25v29.02c.18.3.49.6.95.89s1.01.56,1.65.8c.65.24,1.37.43,2.17.57.8.14,1.65.21,2.57.21,1.72,0,3.34-.34,4.85-1.01,1.51-.67,2.83-1.74,3.96-3.19,1.13-1.46,2.03-3.35,2.7-5.67s1.03-5.13,1.08-8.42c.05-2.94-.22-5.47-.8-7.59-.58-2.12-1.39-3.86-2.42-5.23-1.03-1.37-2.24-2.38-3.65-3.02s-2.91-.97-4.51-.97Z"/>
    <path class="cls-3" d="M461.02,181.01c-3.22,0-6.04-.56-8.46-1.67-2.42-1.12-4.44-2.67-6.07-4.68-1.62-2-2.84-4.39-3.65-7.17-.81-2.78-1.22-5.82-1.22-9.15s.51-6.45,1.52-9.22c1.01-2.78,2.43-5.16,4.24-7.15,1.81-1.99,3.96-3.53,6.45-4.62,2.48-1.09,5.2-1.64,8.14-1.64,4.79,0,8.51,1.3,11.14,3.9,2.64,2.6,4.07,6.45,4.3,11.54.02,1.65.01,3.09-.04,4.32-.05,1.23-.18,2.31-.38,3.25h-26.32v.23c.1,2.89.52,5.36,1.26,7.42.73,2.05,1.69,3.73,2.87,5.04,1.18,1.31,2.53,2.26,4.05,2.85,1.52.6,3.1.89,4.75.89,1.09,0,2.19-.1,3.31-.3,1.12-.2,2.19-.47,3.21-.8s1.96-.71,2.81-1.14c.85-.43,1.55-.86,2.11-1.29l1.6,3.73c-.74.74-1.67,1.44-2.79,2.13-1.13.68-2.38,1.29-3.77,1.81s-2.85.94-4.39,1.25c-1.55.32-3.11.48-4.68.48ZM460.07,140.28c-1.27,0-2.45.22-3.54.67-1.09.44-2.05,1.2-2.87,2.26-.82,1.06-1.5,2.48-2.02,4.26-.52,1.77-.84,4.01-.97,6.69h17.65c.05-.51.08-1.04.09-1.6.01-.56.02-1.08.02-1.56,0-1.42-.15-2.78-.46-4.07s-.79-2.43-1.45-3.42c-.66-.99-1.52-1.77-2.57-2.36-1.05-.58-2.35-.87-3.9-.87Z"/>
    <path class="cls-3" d="M483.84,159.14c0-3.17.49-6.17,1.48-8.99.99-2.83,2.43-5.31,4.32-7.45,1.89-2.14,4.2-3.84,6.94-5.1s5.83-1.88,9.28-1.88c1.27,0,2.48.08,3.65.25,1.17.17,2.25.37,3.25.61,1,.24,1.9.5,2.68.78.79.28,1.43.53,1.94.76l-.38,11.18h-5.13l-1.71-6.31c-.66-.86-1.49-1.53-2.49-2-1-.47-2.22-.7-3.67-.7s-2.83.33-4.15.99c-1.32.66-2.49,1.65-3.52,2.99-1.03,1.33-1.85,2.99-2.47,4.98-.62,1.99-.94,4.32-.97,6.98-.03,3.42.31,6.34,1.01,8.75.7,2.41,1.63,4.37,2.8,5.88,1.17,1.51,2.52,2.6,4.07,3.29,1.55.68,3.16,1.03,4.83,1.03,1.19,0,2.31-.1,3.37-.3,1.05-.2,2.02-.47,2.91-.8.89-.33,1.7-.7,2.43-1.12.73-.42,1.38-.83,1.94-1.24l1.67,3.65c-.68.71-1.53,1.4-2.55,2.07-1.01.67-2.15,1.27-3.4,1.81-1.25.53-2.58.96-3.97,1.29-1.39.33-2.81.49-4.26.49-3.27,0-6.14-.56-8.61-1.69-2.47-1.13-4.54-2.67-6.2-4.62-1.66-1.95-2.92-4.27-3.76-6.94-.85-2.67-1.29-5.55-1.31-8.61Z"/>
    <path class="cls-3" d="M522.89,180.13v-4.18l6.27-.65v-31.64l-5.32-1.67v-4.56l11.6-1.56h.19l2.02,1.52v37.95l6.16.61v4.18h-20.92ZM532.17,128.68c-.74,0-1.41-.13-2.02-.4-.61-.27-1.13-.63-1.56-1.1-.43-.47-.76-1.03-.99-1.67s-.34-1.34-.34-2.07c0-.81.12-1.58.36-2.32.24-.73.6-1.39,1.06-1.96.47-.57,1.06-1.03,1.77-1.37.71-.34,1.53-.51,2.47-.51h.04c.84,0,1.57.15,2.21.46.63.3,1.17.7,1.6,1.2.43.49.76,1.06.99,1.69s.34,1.29.34,1.98c0,.86-.12,1.66-.36,2.4-.24.74-.61,1.38-1.1,1.92-.49.55-1.11.98-1.84,1.29-.74.32-1.6.48-2.59.48h-.04Z"/>
    <path class="cls-3" d="M549.48,168.72c0-1.83.34-3.45,1.03-4.89.68-1.43,1.62-2.69,2.81-3.78,1.19-1.09,2.59-2.02,4.2-2.78,1.61-.76,3.35-1.38,5.21-1.86,1.86-.48,3.8-.84,5.82-1.06,2.02-.23,4.01-.37,5.99-.42v-2.02c0-1.77-.13-3.28-.38-4.51-.25-1.23-.69-2.23-1.31-3-.62-.77-1.45-1.33-2.49-1.67s-2.36-.51-3.95-.51c-1.37,0-2.74.13-4.11.38s-2.68.56-3.94.93c-1.25.37-2.41.76-3.46,1.18-1.05.42-1.93.81-2.64,1.16h-.04l-1.71-3.65c.48-.46,1.33-1.04,2.55-1.75,1.22-.71,2.66-1.39,4.32-2.05,1.66-.66,3.45-1.23,5.36-1.71,1.91-.48,3.82-.72,5.72-.72,2.66,0,4.91.27,6.75.82,1.84.55,3.33,1.42,4.47,2.62,1.14,1.2,1.96,2.76,2.45,4.68.49,1.91.74,4.25.74,7.02v24.79h4.72v3.69c-.48.13-1.06.27-1.73.44-.67.16-1.38.32-2.11.46-.74.14-1.48.26-2.24.36-.76.1-1.48.15-2.17.15s-1.33-.03-1.84-.09c-.52-.06-.94-.23-1.27-.49-.33-.27-.58-.67-.74-1.2-.17-.53-.25-1.25-.25-2.17v-1.41c-.33.3-.87.75-1.62,1.35-.75.6-1.67,1.19-2.76,1.79-1.09.6-2.33,1.12-3.73,1.56-1.39.44-2.89.67-4.49.67-1.75,0-3.42-.23-5-.7-1.58-.47-2.98-1.2-4.18-2.19-1.2-.99-2.17-2.26-2.89-3.82s-1.08-3.42-1.08-5.57ZM565.91,175.19c.53,0,1.17-.07,1.9-.21.74-.14,1.5-.34,2.28-.59.79-.25,1.57-.57,2.34-.95.77-.38,1.48-.8,2.11-1.25v-13.99c-3.04,0-5.58.27-7.62.8-2.04.53-3.67,1.24-4.89,2.11s-2.08,1.87-2.59,2.99c-.51,1.12-.76,2.28-.76,3.5,0,1.39.18,2.57.55,3.54s.88,1.75,1.52,2.36,1.41,1.05,2.3,1.31c.89.27,1.84.4,2.85.4Z"/>
    <path class="cls-3" d="M592.53,180.13v-4.18l6.27-.65v-53.05l-6.27-.68v-3.61l12.78-1.71h.08l1.9,1.33v57.73l6.58.65v4.18h-21.33Z"/>
    <path class="cls-3" d="M668.74,181.01c-4.06.08-7.65-.58-10.78-1.98-3.13-1.39-5.75-3.38-7.85-5.97-2.1-2.59-3.7-5.7-4.79-9.34-1.09-3.64-1.64-7.65-1.64-12.04s.67-8.74,2.02-12.45c1.34-3.71,3.19-6.88,5.55-9.49,2.36-2.61,5.15-4.62,8.37-6.03,3.22-1.41,6.69-2.11,10.42-2.11,4.08,0,7.68.69,10.78,2.07,3.11,1.38,5.7,3.34,7.78,5.88,2.08,2.54,3.64,5.59,4.7,9.17,1.05,3.58,1.58,7.56,1.58,11.94s-.67,8.74-2,12.45c-1.33,3.71-3.16,6.88-5.5,9.51-2.33,2.62-5.09,4.66-8.27,6.1-3.18,1.45-6.64,2.21-10.36,2.28ZM669.23,126.17c-2.43,0-4.63.51-6.6,1.52-1.96,1.01-3.64,2.57-5.02,4.66-1.38,2.09-2.45,4.74-3.21,7.95-.76,3.21-1.14,6.99-1.14,11.35,0,3.73.36,7.12,1.08,10.17.72,3.06,1.77,5.67,3.14,7.83s3.05,3.84,5.04,5.02c1.99,1.18,4.25,1.77,6.79,1.77s4.63-.52,6.58-1.56c1.95-1.04,3.62-2.62,5.02-4.75,1.39-2.13,2.47-4.81,3.21-8.04.75-3.23,1.12-7.03,1.12-11.39,0-3.7-.35-7.07-1.06-10.1-.71-3.03-1.75-5.61-3.12-7.74-1.37-2.13-3.05-3.78-5.04-4.94-1.99-1.17-4.25-1.75-6.79-1.75Z"/>
    <path class="cls-3" d="M701.1,180.13v-4.18l6.39-.72v-32.67h-7.34v-3.77l7.34-1.83v-3.61c0-2.48.53-4.8,1.6-6.96,1.06-2.15,2.45-4.02,4.15-5.59,1.7-1.57,3.62-2.81,5.76-3.71,2.14-.9,4.29-1.35,6.45-1.35,1.27,0,2.22.06,2.85.19.63.13,1.18.27,1.64.42v8.56c-.23-.18-.56-.39-1.01-.63-.44-.24-.98-.47-1.62-.68-.63-.22-1.33-.4-2.09-.55-.76-.15-1.57-.23-2.43-.23-1.06,0-2.02.09-2.85.27-.84.18-1.55.53-2.15,1.06-.6.53-1.05,1.27-1.37,2.22-.32.95-.48,2.19-.48,3.71l.04,6.88h10.34v5.59h-10.34v32.71l8.14.68v4.18h-23.01Z"/>
    <path class="cls-3" d="M732.74,180.13v-4.18l6.39-.72v-32.67h-7.34v-3.77l7.34-1.83v-3.61c0-2.48.53-4.8,1.6-6.96,1.06-2.15,2.45-4.02,4.15-5.59,1.7-1.57,3.62-2.81,5.76-3.71,2.14-.9,4.29-1.35,6.45-1.35,1.27,0,2.22.06,2.85.19.63.13,1.18.27,1.64.42v8.56c-.23-.18-.56-.39-1.01-.63-.44-.24-.98-.47-1.62-.68-.63-.22-1.33-.4-2.09-.55-.76-.15-1.57-.23-2.43-.23-1.06,0-2.02.09-2.85.27-.84.18-1.55.53-2.15,1.06-.6.53-1.05,1.27-1.37,2.22-.32.95-.48,2.19-.48,3.71l.04,6.88h10.34v5.59h-10.34v32.71l8.14.68v4.18h-23.01Z"/>
    <path class="cls-3" d="M783.28,181.01c-3.22,0-6.04-.56-8.46-1.67-2.42-1.12-4.44-2.67-6.07-4.68-1.62-2-2.84-4.39-3.65-7.17-.81-2.78-1.22-5.82-1.22-9.15s.51-6.45,1.52-9.22c1.01-2.78,2.43-5.16,4.24-7.15,1.81-1.99,3.96-3.53,6.45-4.62,2.48-1.09,5.2-1.64,8.14-1.64,4.79,0,8.51,1.3,11.14,3.9,2.64,2.6,4.07,6.45,4.3,11.54.02,1.65.01,3.09-.04,4.32-.05,1.23-.18,2.31-.38,3.25h-26.32v.23c.1,2.89.52,5.36,1.26,7.42.73,2.05,1.69,3.73,2.87,5.04,1.18,1.31,2.53,2.26,4.05,2.85,1.52.6,3.1.89,4.75.89,1.09,0,2.19-.1,3.31-.3,1.12-.2,2.19-.47,3.21-.8s1.96-.71,2.81-1.14c.85-.43,1.55-.86,2.11-1.29l1.6,3.73c-.74.74-1.67,1.44-2.79,2.13-1.13.68-2.38,1.29-3.77,1.81s-2.85.94-4.39,1.25c-1.55.32-3.11.48-4.68.48ZM782.33,140.28c-1.27,0-2.45.22-3.54.67-1.09.44-2.05,1.2-2.87,2.26-.82,1.06-1.5,2.48-2.02,4.26-.52,1.77-.84,4.01-.97,6.69h17.65c.05-.51.08-1.04.09-1.6.01-.56.02-1.08.02-1.56,0-1.42-.15-2.78-.46-4.07s-.79-2.43-1.45-3.42c-.66-.99-1.52-1.77-2.57-2.36-1.05-.58-2.35-.87-3.9-.87Z"/>
    <path class="cls-3" d="M806.21,180.13v-4.18l6.2-.65v-31.64l-5.32-1.67v-4.56l10.72-1.56h.19l1.79,1.52v2.28l-.04,4.75h.08c.2-.33.67-.97,1.41-1.92.73-.95,1.71-1.93,2.93-2.93,1.22-1,2.66-1.9,4.32-2.68,1.66-.79,3.49-1.18,5.5-1.18.58,0,1.06.03,1.44.09.38.06.71.15.99.25v9.32c-.1-.08-.29-.16-.57-.25-.28-.09-.62-.17-1.01-.25-.39-.08-.82-.15-1.29-.21-.47-.06-.96-.09-1.46-.09-2.84,0-5.14.29-6.9.86-1.76.57-3.19,1.25-4.28,2.03v27.84l10.34.72v4.11h-25.02Z"/>
    <path class="cls-3" d="M843.4,177.7v-9.96h5.4l1.56,5.63c.23.41.62.81,1.18,1.2.56.39,1.22.75,1.98,1.06.76.32,1.61.57,2.55.76.94.19,1.91.29,2.93.29,1.57,0,2.86-.17,3.88-.51,1.01-.34,1.81-.79,2.4-1.35.58-.56.98-1.21,1.2-1.96.21-.75.32-1.51.32-2.3,0-.99-.22-1.88-.67-2.68-.44-.8-1.12-1.56-2.03-2.28-.91-.72-2.09-1.43-3.52-2.13-1.43-.7-3.14-1.43-5.12-2.19-2.05-.79-3.83-1.62-5.32-2.51-1.5-.89-2.74-1.88-3.73-2.99-.99-1.1-1.72-2.33-2.19-3.69-.47-1.36-.7-2.9-.7-4.62s.4-3.33,1.2-4.73c.8-1.41,1.9-2.62,3.31-3.63,1.41-1.01,3.07-1.79,4.98-2.34,1.91-.54,3.99-.82,6.22-.82,1.57,0,3.02.1,4.33.29s2.51.42,3.58.68c1.06.27,2,.54,2.79.82.8.28,1.44.49,1.92.65v9.51l-5.06-.04-1.67-4.91c-.33-.66-1.05-1.27-2.15-1.84-1.1-.57-2.52-.86-4.24-.86-1.32-.02-2.45.1-3.38.38-.94.28-1.7.66-2.28,1.14-.58.48-1.01,1.05-1.29,1.69s-.42,1.34-.42,2.07c0,1.37.29,2.48.87,3.35.58.86,1.35,1.6,2.3,2.21s2.03,1.14,3.25,1.6c1.22.46,2.46.96,3.73,1.52,1.75.76,3.42,1.56,5,2.4,1.58.84,2.99,1.79,4.2,2.87,1.22,1.08,2.19,2.33,2.91,3.77.72,1.43,1.08,3.12,1.08,5.08s-.37,3.68-1.12,5.25c-.75,1.57-1.83,2.91-3.25,4.01-1.42,1.1-3.15,1.95-5.19,2.55-2.04.6-4.34.89-6.9.89-1.37,0-2.79-.11-4.26-.34-1.47-.23-2.88-.51-4.24-.84-1.36-.33-2.59-.69-3.69-1.08-1.1-.39-1.98-.74-2.64-1.05Z"/>
  </g>
  <g>
    <path class="cls-4" d="M685.5,383.48h43.38v11.98h-32.44v19.14c3.81-3.07,8.16-4.61,13.04-4.61,3.14.08,6.01.65,8.62,1.73,2.46,1.19,4.46,2.65,5.99,4.38,2.26,2.31,3.9,4.97,4.9,8.01.52,1.65.89,3.67,1.11,6.05.22,2.42.33,5.4.33,8.93,0,5.45-.37,9.64-1.12,12.56-.78,2.88-2.08,5.43-3.91,7.66-1.6,2.18-3.93,4.17-6.98,5.96-2.98,1.87-6.51,2.85-10.61,2.92-5.51,0-10.55-1.69-15.13-5.06-4.65-3.45-7.54-9.03-8.66-16.74h11.68c1.27,6.47,5.16,9.74,11.68,9.82,2.79,0,5.03-.58,6.71-1.73,1.6-1.12,2.72-2.58,3.35-4.39.67-1.81,1.08-3.77,1.23-5.89.07-2.08.11-4.1.11-6.06.08-4.81-.65-8.72-2.19-11.72-.82-1.42-2.04-2.56-3.65-3.41-1.61-.69-3.61-1.04-6-1.04-2.13,0-4.07.5-5.83,1.5-1.76,1.04-3.33,2.85-4.71,5.43h-10.94v-45.42Z"/>
    <path class="cls-4" d="M741.97,459.12h8.14v8.39l-8.14,6.13v-14.52Z"/>
    <path class="cls-4" d="M760.58,406.9c.07-7.75,2.48-13.71,7.21-17.9,4.43-4.14,9.72-6.21,15.87-6.21s11.71,2.07,16.15,6.22c4.51,4.19,6.83,10.16,6.98,17.92v37.06c-.15,7.72-2.48,13.68-6.98,17.87-4.43,4.15-9.82,6.26-16.15,6.34-6.15-.08-11.44-2.19-15.87-6.33-4.73-4.18-7.13-10.13-7.21-17.84v-37.13ZM795.16,407.65c-.23-8.43-4.06-12.72-11.5-12.88-7.48.15-11.3,4.45-11.45,12.88v35.69c.15,8.51,3.96,12.8,11.45,12.88,7.44-.08,11.28-4.37,11.5-12.88v-35.69Z"/>
    <path class="cls-4" d="M817.23,406.9c.07-7.75,2.48-13.71,7.21-17.9,4.43-4.14,9.72-6.21,15.87-6.21s11.71,2.07,16.15,6.22c4.51,4.19,6.83,10.16,6.98,17.92v37.06c-.15,7.72-2.48,13.68-6.98,17.87-4.43,4.15-9.82,6.26-16.15,6.34-6.15-.08-11.44-2.19-15.87-6.33-4.73-4.18-7.13-10.13-7.21-17.84v-37.13ZM851.8,407.65c-.23-8.43-4.06-12.72-11.5-12.88-7.48.15-11.3,4.45-11.45,12.88v35.69c.15,8.51,3.96,12.8,11.45,12.88,7.44-.08,11.28-4.37,11.5-12.88v-35.69Z"/>
    <path class="cls-4" d="M873.88,406.9c.07-7.75,2.48-13.71,7.21-17.9,4.43-4.14,9.72-6.21,15.87-6.21s11.71,2.07,16.15,6.22c4.51,4.19,6.83,10.16,6.98,17.92v37.06c-.15,7.72-2.48,13.68-6.98,17.87-4.43,4.15-9.82,6.26-16.15,6.34-6.15-.08-11.44-2.19-15.87-6.33-4.73-4.18-7.13-10.13-7.21-17.84v-37.13ZM908.45,407.65c-.23-8.43-4.06-12.72-11.5-12.88-7.48.15-11.3,4.45-11.45,12.88v35.69c.15,8.51,3.96,12.8,11.45,12.88,7.44-.08,11.28-4.37,11.5-12.88v-35.69Z"/>
    <path class="cls-8" d="M982.46,466.32c0,2.46-.62,3.69-2.36,4.36-1.69.62-4.56.67-9.13.67-.21-1.03-.87-2.77-1.44-3.79,3.49.15,6.82.1,7.79.05.92,0,1.28-.31,1.28-1.28v-15.69h-34.36v20.82h-3.79v-43.34h42v38.21ZM944.26,446.84h15.03v-15.03h-15.03v15.03ZM978.62,446.84v-15.03h-15.59v15.03h15.59Z"/>
  </g>
  <polygon class="cls-3" points="575.48 439.87 558.14 429.86 558.14 449.89 575.48 439.87"/>
  <polygon class="cls-3" points="613.63 439.87 596.29 429.86 596.29 449.89 613.63 439.87"/>
  <polygon class="cls-3" points="647.06 439.87 629.72 429.86 629.72 449.89 647.06 439.87"/>
  <rect class="cls-4" x="280.27" y="583.24" width="308.17" height="5.72"/>
  <rect class="cls-4" x="697.84" y="601.65" width="195.38" height="5.55"/>
</svg>